<?xml version="1.0" encoding="utf-8" standalone="no"?>
<!DOCTYPE svg PUBLIC "-//W3C//DTD SVG 1.1//EN"
  "http://www.w3.org/Graphics/SVG/1.1/DTD/svg11.dtd">
<svg xmlns:xlink="http://www.w3.org/1999/xlink" width="180pt" height="165.6pt" viewBox="0 0 180 165.6" xmlns="http://www.w3.org/2000/svg" version="1.1">
 <metadata>
  <rdf:RDF xmlns:dc="http://purl.org/dc/elements/1.1/" xmlns:cc="http://creativecommons.org/ns#" xmlns:rdf="http://www.w3.org/1999/02/22-rdf-syntax-ns#">
   <cc:Work>
    <dc:type rdf:resource="http://purl.org/dc/dcmitype/StillImage"/>
    <dc:date>2025-04-02T16:08:38.211718</dc:date>
    <dc:format>image/svg+xml</dc:format>
    <dc:creator>
     <cc:Agent>
      <dc:title>Matplotlib v3.8.4, https://matplotlib.org/</dc:title>
     </cc:Agent>
    </dc:creator>
   </cc:Work>
  </rdf:RDF>
 </metadata>
 <defs>
  <style type="text/css">*{stroke-linejoin: round; stroke-linecap: butt}</style>
 </defs>
 <g id="figure_1">
  <g id="patch_1">
   <path d="M 0 165.6 
L 180 165.6 
L 180 0 
L 0 0 
z
" style="fill: #ffffff"/>
  </g>
  <g id="axes_1">
   <g id="patch_2">
    <path d="M 36 129.6 
L 144 129.6 
L 144 36 
L 36 36 
z
" style="fill: #ffffff"/>
   </g>
   <g id="PathCollection_1">
    <defs>
     <path id="mb3f2674fd8" d="M 0 -1.936492 
L -1.936492 1.936492 
L 1.936492 1.936492 
z
" style="stroke: #2ca02c"/>
    </defs>
    <g clip-path="url(#p8fe1dbbc46)">
     <use xlink:href="#mb3f2674fd8" x="139.090909" y="44.244748" style="fill: #2ca02c; stroke: #2ca02c"/>
     <use xlink:href="#mb3f2674fd8" x="135.79456" y="40.254545" style="fill: #2ca02c; stroke: #2ca02c"/>
     <use xlink:href="#mb3f2674fd8" x="132.349468" y="44.072791" style="fill: #2ca02c; stroke: #2ca02c"/>
     <use xlink:href="#mb3f2674fd8" x="130.412054" y="48.317585" style="fill: #2ca02c; stroke: #2ca02c"/>
     <use xlink:href="#mb3f2674fd8" x="130.264733" y="49.110687" style="fill: #2ca02c; stroke: #2ca02c"/>
     <use xlink:href="#mb3f2674fd8" x="126.491567" y="45.175721" style="fill: #2ca02c; stroke: #2ca02c"/>
     <use xlink:href="#mb3f2674fd8" x="125.988116" y="44.6477" style="fill: #2ca02c; stroke: #2ca02c"/>
     <use xlink:href="#mb3f2674fd8" x="125.036463" y="49.747132" style="fill: #2ca02c; stroke: #2ca02c"/>
     <use xlink:href="#mb3f2674fd8" x="123.446853" y="47.523925" style="fill: #2ca02c; stroke: #2ca02c"/>
     <use xlink:href="#mb3f2674fd8" x="123.11397" y="48.788743" style="fill: #2ca02c; stroke: #2ca02c"/>
     <use xlink:href="#mb3f2674fd8" x="120.236949" y="50.575911" style="fill: #2ca02c; stroke: #2ca02c"/>
     <use xlink:href="#mb3f2674fd8" x="119.053788" y="62.311718" style="fill: #2ca02c; stroke: #2ca02c"/>
     <use xlink:href="#mb3f2674fd8" x="116.725367" y="50.679391" style="fill: #2ca02c; stroke: #2ca02c"/>
     <use xlink:href="#mb3f2674fd8" x="115.957842" y="70.149808" style="fill: #2ca02c; stroke: #2ca02c"/>
     <use xlink:href="#mb3f2674fd8" x="115.194373" y="63.61118" style="fill: #2ca02c; stroke: #2ca02c"/>
     <use xlink:href="#mb3f2674fd8" x="114.290975" y="60.473792" style="fill: #2ca02c; stroke: #2ca02c"/>
     <use xlink:href="#mb3f2674fd8" x="112.601428" y="54.112809" style="fill: #2ca02c; stroke: #2ca02c"/>
     <use xlink:href="#mb3f2674fd8" x="109.383284" y="63.750338" style="fill: #2ca02c; stroke: #2ca02c"/>
     <use xlink:href="#mb3f2674fd8" x="109.320639" y="70.550871" style="fill: #2ca02c; stroke: #2ca02c"/>
    </g>
   </g>
   <g id="PathCollection_2">
    <defs>
     <path id="m8f006f7f25" d="M 0 1.936492 
C 0.513564 1.936492 1.006162 1.732451 1.369306 1.369306 
C 1.732451 1.006162 1.936492 0.513564 1.936492 0 
C 1.936492 -0.513564 1.732451 -1.006162 1.369306 -1.369306 
C 1.006162 -1.732451 0.513564 -1.936492 0 -1.936492 
C -0.513564 -1.936492 -1.006162 -1.732451 -1.369306 -1.369306 
C -1.732451 -1.006162 -1.936492 -0.513564 -1.936492 0 
C -1.936492 0.513564 -1.732451 1.006162 -1.369306 1.369306 
C -1.006162 1.732451 -0.513564 1.936492 0 1.936492 
z
" style="stroke: #1f77b4"/>
    </defs>
    <g clip-path="url(#p8fe1dbbc46)">
     <use xlink:href="#m8f006f7f25" x="128.106744" y="47.514687" style="fill: #1f77b4; stroke: #1f77b4"/>
     <use xlink:href="#m8f006f7f25" x="110.255176" y="51.848396" style="fill: #1f77b4; stroke: #1f77b4"/>
     <use xlink:href="#m8f006f7f25" x="106.209133" y="67.701612" style="fill: #1f77b4; stroke: #1f77b4"/>
     <use xlink:href="#m8f006f7f25" x="103.689505" y="73.780619" style="fill: #1f77b4; stroke: #1f77b4"/>
     <use xlink:href="#m8f006f7f25" x="101.518032" y="84.315725" style="fill: #1f77b4; stroke: #1f77b4"/>
     <use xlink:href="#m8f006f7f25" x="99.867341" y="73.749838" style="fill: #1f77b4; stroke: #1f77b4"/>
     <use xlink:href="#m8f006f7f25" x="98.534204" y="95.186139" style="fill: #1f77b4; stroke: #1f77b4"/>
     <use xlink:href="#m8f006f7f25" x="97.307109" y="78.447064" style="fill: #1f77b4; stroke: #1f77b4"/>
     <use xlink:href="#m8f006f7f25" x="95.904153" y="83.097602" style="fill: #1f77b4; stroke: #1f77b4"/>
     <use xlink:href="#m8f006f7f25" x="95.158245" y="97.384016" style="fill: #1f77b4; stroke: #1f77b4"/>
     <use xlink:href="#m8f006f7f25" x="94.138203" y="104.671888" style="fill: #1f77b4; stroke: #1f77b4"/>
     <use xlink:href="#m8f006f7f25" x="93.471009" y="97.805997" style="fill: #1f77b4; stroke: #1f77b4"/>
     <use xlink:href="#m8f006f7f25" x="92.853606" y="69.470549" style="fill: #1f77b4; stroke: #1f77b4"/>
     <use xlink:href="#m8f006f7f25" x="91.711113" y="87.966741" style="fill: #1f77b4; stroke: #1f77b4"/>
     <use xlink:href="#m8f006f7f25" x="91.202436" y="74.831832" style="fill: #1f77b4; stroke: #1f77b4"/>
     <use xlink:href="#m8f006f7f25" x="90.726999" y="60.435591" style="fill: #1f77b4; stroke: #1f77b4"/>
     <use xlink:href="#m8f006f7f25" x="90.227326" y="95.927192" style="fill: #1f77b4; stroke: #1f77b4"/>
     <use xlink:href="#m8f006f7f25" x="89.495844" y="101.666026" style="fill: #1f77b4; stroke: #1f77b4"/>
     <use xlink:href="#m8f006f7f25" x="89.215711" y="107.311839" style="fill: #1f77b4; stroke: #1f77b4"/>
     <use xlink:href="#m8f006f7f25" x="88.401329" y="85.636491" style="fill: #1f77b4; stroke: #1f77b4"/>
     <use xlink:href="#m8f006f7f25" x="88.16696" y="90.435074" style="fill: #1f77b4; stroke: #1f77b4"/>
     <use xlink:href="#m8f006f7f25" x="87.597275" y="85.505801" style="fill: #1f77b4; stroke: #1f77b4"/>
     <use xlink:href="#m8f006f7f25" x="87.169086" y="93.365815" style="fill: #1f77b4; stroke: #1f77b4"/>
     <use xlink:href="#m8f006f7f25" x="87.081158" y="102.997478" style="fill: #1f77b4; stroke: #1f77b4"/>
     <use xlink:href="#m8f006f7f25" x="86.347809" y="111.47878" style="fill: #1f77b4; stroke: #1f77b4"/>
     <use xlink:href="#m8f006f7f25" x="85.859949" y="107.843506" style="fill: #1f77b4; stroke: #1f77b4"/>
     <use xlink:href="#m8f006f7f25" x="74.57578" y="106.797606" style="fill: #1f77b4; stroke: #1f77b4"/>
     <use xlink:href="#m8f006f7f25" x="63.483553" y="125.345455" style="fill: #1f77b4; stroke: #1f77b4"/>
     <use xlink:href="#m8f006f7f25" x="51.679847" y="125.345455" style="fill: #1f77b4; stroke: #1f77b4"/>
     <use xlink:href="#m8f006f7f25" x="40.909091" y="124.541038" style="fill: #1f77b4; stroke: #1f77b4"/>
    </g>
   </g>
   <g id="matplotlib.axis_1">
    <g id="xtick_1">
     <g id="line2d_1">
      <defs>
       <path id="m7bef2a80e0" d="M 0 0 
L 0 3.5 
" style="stroke: #000000; stroke-width: 0.8"/>
      </defs>
      <g>
       <use xlink:href="#m7bef2a80e0" x="71.874477" y="129.6" style="stroke: #000000; stroke-width: 0.8"/>
      </g>
     </g>
     <g id="text_1">
      <!-- $\mathdefault{10^{0}}$ -->
      <g transform="translate(62.454477 148.975) scale(0.12 -0.12)">
       <defs>
        <path id="ArialMT-31" d="M 2384 0 
L 1822 0 
L 1822 3584 
Q 1619 3391 1289 3197 
Q 959 3003 697 2906 
L 697 3450 
Q 1169 3672 1522 3987 
Q 1875 4303 2022 4600 
L 2384 4600 
L 2384 0 
z
" transform="scale(0.015625)"/>
        <path id="ArialMT-30" d="M 266 2259 
Q 266 3072 433 3567 
Q 600 4063 929 4331 
Q 1259 4600 1759 4600 
Q 2128 4600 2406 4451 
Q 2684 4303 2865 4023 
Q 3047 3744 3150 3342 
Q 3253 2941 3253 2259 
Q 3253 1453 3087 958 
Q 2922 463 2592 192 
Q 2263 -78 1759 -78 
Q 1097 -78 719 397 
Q 266 969 266 2259 
z
M 844 2259 
Q 844 1131 1108 757 
Q 1372 384 1759 384 
Q 2147 384 2411 759 
Q 2675 1134 2675 2259 
Q 2675 3391 2411 3762 
Q 2147 4134 1753 4134 
Q 1366 4134 1134 3806 
Q 844 3388 844 2259 
z
" transform="scale(0.015625)"/>
       </defs>
       <use xlink:href="#ArialMT-31" transform="translate(0 0.99375)"/>
       <use xlink:href="#ArialMT-30" transform="translate(55.615234 0.99375)"/>
       <use xlink:href="#ArialMT-30" transform="translate(112.972813 70.6875) scale(0.7)"/>
      </g>
     </g>
    </g>
    <g id="xtick_2">
     <g id="line2d_2">
      <g>
       <use xlink:href="#m7bef2a80e0" x="117.023402" y="129.6" style="stroke: #000000; stroke-width: 0.8"/>
      </g>
     </g>
     <g id="text_2">
      <!-- $\mathdefault{10^{2}}$ -->
      <g transform="translate(107.603402 148.975) scale(0.12 -0.12)">
       <defs>
        <path id="ArialMT-32" d="M 3222 541 
L 3222 0 
L 194 0 
Q 188 203 259 391 
Q 375 700 629 1000 
Q 884 1300 1366 1694 
Q 2113 2306 2375 2664 
Q 2638 3022 2638 3341 
Q 2638 3675 2398 3904 
Q 2159 4134 1775 4134 
Q 1369 4134 1125 3890 
Q 881 3647 878 3216 
L 300 3275 
Q 359 3922 746 4261 
Q 1134 4600 1788 4600 
Q 2447 4600 2831 4234 
Q 3216 3869 3216 3328 
Q 3216 3053 3103 2787 
Q 2991 2522 2730 2228 
Q 2469 1934 1863 1422 
Q 1356 997 1212 845 
Q 1069 694 975 541 
L 3222 541 
z
" transform="scale(0.015625)"/>
       </defs>
       <use xlink:href="#ArialMT-31" transform="translate(0 0.99375)"/>
       <use xlink:href="#ArialMT-30" transform="translate(55.615234 0.99375)"/>
       <use xlink:href="#ArialMT-32" transform="translate(112.972813 70.6875) scale(0.7)"/>
      </g>
     </g>
    </g>
    <g id="text_3">
     <!-- CPM -->
     <g transform="translate(76.666875 163.949375) scale(0.12 -0.12)">
      <defs>
       <path id="ArialMT-43" d="M 3763 1606 
L 4369 1453 
Q 4178 706 3683 314 
Q 3188 -78 2472 -78 
Q 1731 -78 1267 223 
Q 803 525 561 1097 
Q 319 1669 319 2325 
Q 319 3041 592 3573 
Q 866 4106 1370 4382 
Q 1875 4659 2481 4659 
Q 3169 4659 3637 4309 
Q 4106 3959 4291 3325 
L 3694 3184 
Q 3534 3684 3231 3912 
Q 2928 4141 2469 4141 
Q 1941 4141 1586 3887 
Q 1231 3634 1087 3207 
Q 944 2781 944 2328 
Q 944 1744 1114 1308 
Q 1284 872 1643 656 
Q 2003 441 2422 441 
Q 2931 441 3284 734 
Q 3638 1028 3763 1606 
z
" transform="scale(0.015625)"/>
       <path id="ArialMT-50" d="M 494 0 
L 494 4581 
L 2222 4581 
Q 2678 4581 2919 4538 
Q 3256 4481 3484 4323 
Q 3713 4166 3852 3881 
Q 3991 3597 3991 3256 
Q 3991 2672 3619 2267 
Q 3247 1863 2275 1863 
L 1100 1863 
L 1100 0 
L 494 0 
z
M 1100 2403 
L 2284 2403 
Q 2872 2403 3119 2622 
Q 3366 2841 3366 3238 
Q 3366 3525 3220 3729 
Q 3075 3934 2838 4000 
Q 2684 4041 2272 4041 
L 1100 4041 
L 1100 2403 
z
" transform="scale(0.015625)"/>
       <path id="ArialMT-4d" d="M 475 0 
L 475 4581 
L 1388 4581 
L 2472 1338 
Q 2622 884 2691 659 
Q 2769 909 2934 1394 
L 4031 4581 
L 4847 4581 
L 4847 0 
L 4263 0 
L 4263 3834 
L 2931 0 
L 2384 0 
L 1059 3900 
L 1059 0 
L 475 0 
z
" transform="scale(0.015625)"/>
      </defs>
      <use xlink:href="#ArialMT-43"/>
      <use xlink:href="#ArialMT-50" x="72.216797"/>
      <use xlink:href="#ArialMT-4d" x="138.916016"/>
     </g>
    </g>
   </g>
   <g id="matplotlib.axis_2">
    <g id="ytick_1">
     <g id="line2d_3">
      <defs>
       <path id="m9eb010d0e9" d="M 0 0 
L -3.5 0 
" style="stroke: #000000; stroke-width: 0.8"/>
      </defs>
      <g>
       <use xlink:href="#m9eb010d0e9" x="36" y="99.300717" style="stroke: #000000; stroke-width: 0.8"/>
      </g>
     </g>
     <g id="text_4">
      <!-- $\mathdefault{10^{1}}$ -->
      <g transform="translate(10.16 105.488217) scale(0.12 -0.12)">
       <use xlink:href="#ArialMT-31" transform="translate(0 0.99375)"/>
       <use xlink:href="#ArialMT-30" transform="translate(55.615234 0.99375)"/>
       <use xlink:href="#ArialMT-31" transform="translate(112.972813 70.6875) scale(0.7)"/>
      </g>
     </g>
    </g>
    <g id="ytick_2">
     <g id="line2d_4">
      <g>
       <use xlink:href="#m9eb010d0e9" x="36" y="63.189983" style="stroke: #000000; stroke-width: 0.8"/>
      </g>
     </g>
     <g id="text_5">
      <!-- $\mathdefault{10^{2}}$ -->
      <g transform="translate(10.16 69.377483) scale(0.12 -0.12)">
       <use xlink:href="#ArialMT-31" transform="translate(0 0.99375)"/>
       <use xlink:href="#ArialMT-30" transform="translate(55.615234 0.99375)"/>
       <use xlink:href="#ArialMT-32" transform="translate(112.972813 70.6875) scale(0.7)"/>
      </g>
     </g>
    </g>
    <g id="ytick_3">
     <g id="line2d_5">
      <defs>
       <path id="mee03edaa79" d="M 0 0 
L -2 0 
" style="stroke: #000000; stroke-width: 0.6"/>
      </defs>
      <g>
       <use xlink:href="#mee03edaa79" x="36" y="124.541038" style="stroke: #000000; stroke-width: 0.6"/>
      </g>
     </g>
    </g>
    <g id="ytick_4">
     <g id="line2d_6">
      <g>
       <use xlink:href="#mee03edaa79" x="36" y="118.182253" style="stroke: #000000; stroke-width: 0.6"/>
      </g>
     </g>
    </g>
    <g id="ytick_5">
     <g id="line2d_7">
      <g>
       <use xlink:href="#mee03edaa79" x="36" y="113.670623" style="stroke: #000000; stroke-width: 0.6"/>
      </g>
     </g>
    </g>
    <g id="ytick_6">
     <g id="line2d_8">
      <g>
       <use xlink:href="#mee03edaa79" x="36" y="110.171132" style="stroke: #000000; stroke-width: 0.6"/>
      </g>
     </g>
    </g>
    <g id="ytick_7">
     <g id="line2d_9">
      <g>
       <use xlink:href="#mee03edaa79" x="36" y="107.311839" style="stroke: #000000; stroke-width: 0.6"/>
      </g>
     </g>
    </g>
    <g id="ytick_8">
     <g id="line2d_10">
      <g>
       <use xlink:href="#mee03edaa79" x="36" y="104.894341" style="stroke: #000000; stroke-width: 0.6"/>
      </g>
     </g>
    </g>
    <g id="ytick_9">
     <g id="line2d_11">
      <g>
       <use xlink:href="#mee03edaa79" x="36" y="102.800209" style="stroke: #000000; stroke-width: 0.6"/>
      </g>
     </g>
    </g>
    <g id="ytick_10">
     <g id="line2d_12">
      <g>
       <use xlink:href="#mee03edaa79" x="36" y="100.953054" style="stroke: #000000; stroke-width: 0.6"/>
      </g>
     </g>
    </g>
    <g id="ytick_11">
     <g id="line2d_13">
      <g>
       <use xlink:href="#mee03edaa79" x="36" y="88.430303" style="stroke: #000000; stroke-width: 0.6"/>
      </g>
     </g>
    </g>
    <g id="ytick_12">
     <g id="line2d_14">
      <g>
       <use xlink:href="#mee03edaa79" x="36" y="82.071518" style="stroke: #000000; stroke-width: 0.6"/>
      </g>
     </g>
    </g>
    <g id="ytick_13">
     <g id="line2d_15">
      <g>
       <use xlink:href="#mee03edaa79" x="36" y="77.559889" style="stroke: #000000; stroke-width: 0.6"/>
      </g>
     </g>
    </g>
    <g id="ytick_14">
     <g id="line2d_16">
      <g>
       <use xlink:href="#mee03edaa79" x="36" y="74.060397" style="stroke: #000000; stroke-width: 0.6"/>
      </g>
     </g>
    </g>
    <g id="ytick_15">
     <g id="line2d_17">
      <g>
       <use xlink:href="#mee03edaa79" x="36" y="71.201104" style="stroke: #000000; stroke-width: 0.6"/>
      </g>
     </g>
    </g>
    <g id="ytick_16">
     <g id="line2d_18">
      <g>
       <use xlink:href="#mee03edaa79" x="36" y="68.783606" style="stroke: #000000; stroke-width: 0.6"/>
      </g>
     </g>
    </g>
    <g id="ytick_17">
     <g id="line2d_19">
      <g>
       <use xlink:href="#mee03edaa79" x="36" y="66.689474" style="stroke: #000000; stroke-width: 0.6"/>
      </g>
     </g>
    </g>
    <g id="ytick_18">
     <g id="line2d_20">
      <g>
       <use xlink:href="#mee03edaa79" x="36" y="64.842319" style="stroke: #000000; stroke-width: 0.6"/>
      </g>
     </g>
    </g>
    <g id="ytick_19">
     <g id="line2d_21">
      <g>
       <use xlink:href="#mee03edaa79" x="36" y="52.319568" style="stroke: #000000; stroke-width: 0.6"/>
      </g>
     </g>
    </g>
    <g id="ytick_20">
     <g id="line2d_22">
      <g>
       <use xlink:href="#mee03edaa79" x="36" y="45.960784" style="stroke: #000000; stroke-width: 0.6"/>
      </g>
     </g>
    </g>
    <g id="ytick_21">
     <g id="line2d_23">
      <g>
       <use xlink:href="#mee03edaa79" x="36" y="41.449154" style="stroke: #000000; stroke-width: 0.6"/>
      </g>
     </g>
    </g>
    <g id="ytick_22">
     <g id="line2d_24">
      <g>
       <use xlink:href="#mee03edaa79" x="36" y="37.949662" style="stroke: #000000; stroke-width: 0.6"/>
      </g>
     </g>
    </g>
    <g id="text_6">
     <!-- Activity rel. to Au2 -->
     <g transform="translate(3.634375 130.485937) rotate(-90) scale(0.12 -0.12)">
      <defs>
       <path id="ArialMT-41" d="M -9 0 
L 1750 4581 
L 2403 4581 
L 4278 0 
L 3588 0 
L 3053 1388 
L 1138 1388 
L 634 0 
L -9 0 
z
M 1313 1881 
L 2866 1881 
L 2388 3150 
Q 2169 3728 2063 4100 
Q 1975 3659 1816 3225 
L 1313 1881 
z
" transform="scale(0.015625)"/>
       <path id="ArialMT-63" d="M 2588 1216 
L 3141 1144 
Q 3050 572 2676 248 
Q 2303 -75 1759 -75 
Q 1078 -75 664 370 
Q 250 816 250 1647 
Q 250 2184 428 2587 
Q 606 2991 970 3192 
Q 1334 3394 1763 3394 
Q 2303 3394 2647 3120 
Q 2991 2847 3088 2344 
L 2541 2259 
Q 2463 2594 2264 2762 
Q 2066 2931 1784 2931 
Q 1359 2931 1093 2626 
Q 828 2322 828 1663 
Q 828 994 1084 691 
Q 1341 388 1753 388 
Q 2084 388 2306 591 
Q 2528 794 2588 1216 
z
" transform="scale(0.015625)"/>
       <path id="ArialMT-74" d="M 1650 503 
L 1731 6 
Q 1494 -44 1306 -44 
Q 1000 -44 831 53 
Q 663 150 594 308 
Q 525 466 525 972 
L 525 2881 
L 113 2881 
L 113 3319 
L 525 3319 
L 525 4141 
L 1084 4478 
L 1084 3319 
L 1650 3319 
L 1650 2881 
L 1084 2881 
L 1084 941 
Q 1084 700 1114 631 
Q 1144 563 1211 522 
Q 1278 481 1403 481 
Q 1497 481 1650 503 
z
" transform="scale(0.015625)"/>
       <path id="ArialMT-69" d="M 425 3934 
L 425 4581 
L 988 4581 
L 988 3934 
L 425 3934 
z
M 425 0 
L 425 3319 
L 988 3319 
L 988 0 
L 425 0 
z
" transform="scale(0.015625)"/>
       <path id="ArialMT-76" d="M 1344 0 
L 81 3319 
L 675 3319 
L 1388 1331 
Q 1503 1009 1600 663 
Q 1675 925 1809 1294 
L 2547 3319 
L 3125 3319 
L 1869 0 
L 1344 0 
z
" transform="scale(0.015625)"/>
       <path id="ArialMT-79" d="M 397 -1278 
L 334 -750 
Q 519 -800 656 -800 
Q 844 -800 956 -737 
Q 1069 -675 1141 -563 
Q 1194 -478 1313 -144 
Q 1328 -97 1363 -6 
L 103 3319 
L 709 3319 
L 1400 1397 
Q 1534 1031 1641 628 
Q 1738 1016 1872 1384 
L 2581 3319 
L 3144 3319 
L 1881 -56 
Q 1678 -603 1566 -809 
Q 1416 -1088 1222 -1217 
Q 1028 -1347 759 -1347 
Q 597 -1347 397 -1278 
z
" transform="scale(0.015625)"/>
       <path id="ArialMT-20" transform="scale(0.015625)"/>
       <path id="ArialMT-72" d="M 416 0 
L 416 3319 
L 922 3319 
L 922 2816 
Q 1116 3169 1280 3281 
Q 1444 3394 1641 3394 
Q 1925 3394 2219 3213 
L 2025 2691 
Q 1819 2813 1613 2813 
Q 1428 2813 1281 2702 
Q 1134 2591 1072 2394 
Q 978 2094 978 1738 
L 978 0 
L 416 0 
z
" transform="scale(0.015625)"/>
       <path id="ArialMT-65" d="M 2694 1069 
L 3275 997 
Q 3138 488 2766 206 
Q 2394 -75 1816 -75 
Q 1088 -75 661 373 
Q 234 822 234 1631 
Q 234 2469 665 2931 
Q 1097 3394 1784 3394 
Q 2450 3394 2872 2941 
Q 3294 2488 3294 1666 
Q 3294 1616 3291 1516 
L 816 1516 
Q 847 969 1125 678 
Q 1403 388 1819 388 
Q 2128 388 2347 550 
Q 2566 713 2694 1069 
z
M 847 1978 
L 2700 1978 
Q 2663 2397 2488 2606 
Q 2219 2931 1791 2931 
Q 1403 2931 1139 2672 
Q 875 2413 847 1978 
z
" transform="scale(0.015625)"/>
       <path id="ArialMT-6c" d="M 409 0 
L 409 4581 
L 972 4581 
L 972 0 
L 409 0 
z
" transform="scale(0.015625)"/>
       <path id="ArialMT-2e" d="M 581 0 
L 581 641 
L 1222 641 
L 1222 0 
L 581 0 
z
" transform="scale(0.015625)"/>
       <path id="ArialMT-6f" d="M 213 1659 
Q 213 2581 725 3025 
Q 1153 3394 1769 3394 
Q 2453 3394 2887 2945 
Q 3322 2497 3322 1706 
Q 3322 1066 3130 698 
Q 2938 331 2570 128 
Q 2203 -75 1769 -75 
Q 1072 -75 642 372 
Q 213 819 213 1659 
z
M 791 1659 
Q 791 1022 1069 705 
Q 1347 388 1769 388 
Q 2188 388 2466 706 
Q 2744 1025 2744 1678 
Q 2744 2294 2464 2611 
Q 2184 2928 1769 2928 
Q 1347 2928 1069 2612 
Q 791 2297 791 1659 
z
" transform="scale(0.015625)"/>
       <path id="ArialMT-75" d="M 2597 0 
L 2597 488 
Q 2209 -75 1544 -75 
Q 1250 -75 995 37 
Q 741 150 617 320 
Q 494 491 444 738 
Q 409 903 409 1263 
L 409 3319 
L 972 3319 
L 972 1478 
Q 972 1038 1006 884 
Q 1059 663 1231 536 
Q 1403 409 1656 409 
Q 1909 409 2131 539 
Q 2353 669 2445 892 
Q 2538 1116 2538 1541 
L 2538 3319 
L 3100 3319 
L 3100 0 
L 2597 0 
z
" transform="scale(0.015625)"/>
      </defs>
      <use xlink:href="#ArialMT-41"/>
      <use xlink:href="#ArialMT-63" x="66.699219"/>
      <use xlink:href="#ArialMT-74" x="116.699219"/>
      <use xlink:href="#ArialMT-69" x="144.482422"/>
      <use xlink:href="#ArialMT-76" x="166.699219"/>
      <use xlink:href="#ArialMT-69" x="216.699219"/>
      <use xlink:href="#ArialMT-74" x="238.916016"/>
      <use xlink:href="#ArialMT-79" x="266.699219"/>
      <use xlink:href="#ArialMT-20" x="316.699219"/>
      <use xlink:href="#ArialMT-72" x="344.482422"/>
      <use xlink:href="#ArialMT-65" x="377.783203"/>
      <use xlink:href="#ArialMT-6c" x="433.398438"/>
      <use xlink:href="#ArialMT-2e" x="455.615234"/>
      <use xlink:href="#ArialMT-20" x="483.398438"/>
      <use xlink:href="#ArialMT-74" x="511.181641"/>
      <use xlink:href="#ArialMT-6f" x="538.964844"/>
      <use xlink:href="#ArialMT-20" x="594.580078"/>
      <use xlink:href="#ArialMT-41" x="616.863281"/>
      <use xlink:href="#ArialMT-75" x="683.5625"/>
      <use xlink:href="#ArialMT-32" x="739.177734"/>
     </g>
    </g>
   </g>
   <g id="patch_3">
    <path d="M 36 129.6 
L 36 36 
" style="fill: none; stroke: #000000; stroke-width: 0.8; stroke-linejoin: miter; stroke-linecap: square"/>
   </g>
   <g id="patch_4">
    <path d="M 36 129.6 
L 144 129.6 
" style="fill: none; stroke: #000000; stroke-width: 0.8; stroke-linejoin: miter; stroke-linecap: square"/>
   </g>
  </g>
 </g>
 <defs>
  <clipPath id="p8fe1dbbc46">
   <rect x="36" y="36" width="108" height="93.6"/>
  </clipPath>
 </defs>
</svg>
