<?xml version="1.0" encoding="utf-8" standalone="no"?>
<!DOCTYPE svg PUBLIC "-//W3C//DTD SVG 1.1//EN"
  "http://www.w3.org/Graphics/SVG/1.1/DTD/svg11.dtd">
<svg xmlns:xlink="http://www.w3.org/1999/xlink" width="252pt" height="194.4pt" viewBox="0 0 252 194.4" xmlns="http://www.w3.org/2000/svg" version="1.1">
 <metadata>
  <rdf:RDF xmlns:dc="http://purl.org/dc/elements/1.1/" xmlns:cc="http://creativecommons.org/ns#" xmlns:rdf="http://www.w3.org/1999/02/22-rdf-syntax-ns#">
   <cc:Work>
    <dc:type rdf:resource="http://purl.org/dc/dcmitype/StillImage"/>
    <dc:date>2025-09-08T14:59:44.519156</dc:date>
    <dc:format>image/svg+xml</dc:format>
    <dc:creator>
     <cc:Agent>
      <dc:title>Matplotlib v3.8.4, https://matplotlib.org/</dc:title>
     </cc:Agent>
    </dc:creator>
   </cc:Work>
  </rdf:RDF>
 </metadata>
 <defs>
  <style type="text/css">*{stroke-linejoin: round; stroke-linecap: butt}</style>
 </defs>
 <g id="figure_1">
  <g id="patch_1">
   <path d="M 0 194.4 
L 252 194.4 
L 252 0 
L 0 0 
z
" style="fill: #ffffff"/>
  </g>
  <g id="axes_1">
   <g id="patch_2">
    <path d="M 72 122.4 
L 216 122.4 
L 216 36 
L 72 36 
z
" style="fill: #ffffff"/>
   </g>
   <g id="PolyCollection_1">
    <path d="M 78.545455 39.927273 
L 78.545455 10890.955611 
L 78.807273 10890.955611 
L 78.807273 10890.955611 
L 79.069091 10890.955611 
L 79.069091 10890.955611 
L 79.330909 10890.955611 
L 79.330909 10890.955611 
L 79.592727 10890.955611 
L 79.592727 10890.955611 
L 79.854545 10890.955611 
L 79.854545 10890.955611 
L 80.116364 10890.955611 
L 80.116364 10890.955611 
L 80.378182 10890.955611 
L 80.378182 10890.955611 
L 80.64 10890.955611 
L 80.64 10890.955611 
L 80.901818 10890.955611 
L 80.901818 10890.955611 
L 81.163636 10890.955611 
L 81.163636 10890.955611 
L 81.425455 10890.955611 
L 81.425455 10890.955611 
L 81.687273 10890.955611 
L 81.687273 10890.955611 
L 81.949091 10890.955611 
L 81.949091 10890.955611 
L 82.210909 10890.955611 
L 82.210909 10890.955611 
L 82.472727 10890.955611 
L 82.472727 10890.955611 
L 82.734545 10890.955611 
L 82.734545 10890.955611 
L 82.996364 10890.955611 
L 82.996364 10890.955611 
L 83.258182 10890.955611 
L 83.258182 10890.955611 
L 83.52 10890.955611 
L 83.52 10890.955611 
L 83.781818 10890.955611 
L 83.781818 10890.955611 
L 84.043636 10890.955611 
L 84.043636 10890.955611 
L 84.305455 10890.955611 
L 84.305455 10890.955611 
L 84.567273 10890.955611 
L 84.567273 10890.955611 
L 84.829091 10890.955611 
L 84.829091 10890.955611 
L 85.090909 10890.955611 
L 85.090909 10890.955611 
L 85.352727 10890.955611 
L 85.352727 10890.955611 
L 85.614545 10890.955611 
L 85.614545 10890.955611 
L 85.876364 10890.955611 
L 85.876364 10890.955611 
L 86.138182 10890.955611 
L 86.138182 10890.955611 
L 86.4 10890.955611 
L 86.4 10890.955611 
L 86.661818 10890.955611 
L 86.661818 10890.955611 
L 86.923636 10890.955611 
L 86.923636 10890.955611 
L 87.185455 10890.955611 
L 87.185455 10890.955611 
L 87.447273 10890.955611 
L 87.447273 10890.955611 
L 87.709091 10890.955611 
L 87.709091 10890.955611 
L 87.970909 10890.955611 
L 87.970909 10890.955611 
L 88.232727 10890.955611 
L 88.232727 10890.955611 
L 88.494545 10890.955611 
L 88.494545 10890.955611 
L 88.756364 10890.955611 
L 88.756364 10890.955611 
L 89.018182 10890.955611 
L 89.018182 10890.955611 
L 89.28 10890.955611 
L 89.28 10890.955611 
L 89.541818 10890.955611 
L 89.541818 10890.955611 
L 89.803636 10890.955611 
L 89.803636 10890.955611 
L 90.065455 10890.955611 
L 90.065455 10890.955611 
L 90.327273 10890.955611 
L 90.327273 10890.955611 
L 90.589091 10890.955611 
L 90.589091 10890.955611 
L 90.850909 10890.955611 
L 90.850909 10890.955611 
L 91.112727 10890.955611 
L 91.112727 10890.955611 
L 91.374545 10890.955611 
L 91.374545 10890.955611 
L 91.636364 10890.955611 
L 91.636364 10890.955611 
L 91.898182 10890.955611 
L 91.898182 10890.955611 
L 92.16 10890.955611 
L 92.16 10890.955611 
L 92.421818 10890.955611 
L 92.421818 10890.955611 
L 92.683636 10890.955611 
L 92.683636 10890.955611 
L 92.945455 10890.955611 
L 92.945455 10890.955611 
L 93.207273 10890.955611 
L 93.207273 10890.955611 
L 93.469091 10890.955611 
L 93.469091 10890.955611 
L 93.730909 10890.955611 
L 93.730909 10890.955611 
L 93.992727 10890.955611 
L 93.992727 10890.955611 
L 94.254545 10890.955611 
L 94.254545 10890.955611 
L 94.516364 10890.955611 
L 94.516364 10890.955611 
L 94.778182 10890.955611 
L 94.778182 10890.955611 
L 95.04 10890.955611 
L 95.04 10890.955611 
L 95.301818 10890.955611 
L 95.301818 10890.955611 
L 95.563636 10890.955611 
L 95.563636 10890.955611 
L 95.825455 10890.955611 
L 95.825455 10890.955611 
L 96.087273 10890.955611 
L 96.087273 10890.955611 
L 96.349091 10890.955611 
L 96.349091 10890.955611 
L 96.610909 10890.955611 
L 96.610909 10890.955611 
L 96.872727 10890.955611 
L 96.872727 10890.955611 
L 97.134545 10890.955611 
L 97.134545 10890.955611 
L 97.396364 10890.955611 
L 97.396364 10890.955611 
L 97.658182 10890.955611 
L 97.658182 10890.955611 
L 97.92 10890.955611 
L 97.92 10890.955611 
L 98.181818 10890.955611 
L 98.181818 10890.955611 
L 98.443636 10890.955611 
L 98.443636 10890.955611 
L 98.705455 10890.955611 
L 98.705455 10890.955611 
L 98.967273 10890.955611 
L 98.967273 10890.955611 
L 99.229091 10890.955611 
L 99.229091 10890.955611 
L 99.490909 10890.955611 
L 99.490909 10890.955611 
L 99.752727 10890.955611 
L 99.752727 10890.955611 
L 100.014545 10890.955611 
L 100.014545 10890.955611 
L 100.276364 10890.955611 
L 100.276364 10890.955611 
L 100.538182 10890.955611 
L 100.538182 10890.955611 
L 100.8 10890.955611 
L 100.8 10890.955611 
L 101.061818 10890.955611 
L 101.061818 10890.955611 
L 101.323636 10890.955611 
L 101.323636 10890.955611 
L 101.585455 10890.955611 
L 101.585455 10890.955611 
L 101.847273 10890.955611 
L 101.847273 10890.955611 
L 102.109091 10890.955611 
L 102.109091 10890.955611 
L 102.370909 10890.955611 
L 102.370909 10890.955611 
L 102.632727 10890.955611 
L 102.632727 10890.955611 
L 102.894545 10890.955611 
L 102.894545 10890.955611 
L 103.156364 10890.955611 
L 103.156364 10890.955611 
L 103.418182 10890.955611 
L 103.418182 10890.955611 
L 103.68 10890.955611 
L 103.68 10890.955611 
L 103.941818 10890.955611 
L 103.941818 10890.955611 
L 104.203636 10890.955611 
L 104.203636 10890.955611 
L 104.465455 10890.955611 
L 104.465455 10890.955611 
L 104.727273 10890.955611 
L 104.727273 10890.955611 
L 104.989091 10890.955611 
L 104.989091 10890.955611 
L 105.250909 10890.955611 
L 105.250909 10890.955611 
L 105.512727 10890.955611 
L 105.512727 10890.955611 
L 105.774545 10890.955611 
L 105.774545 10890.955611 
L 106.036364 10890.955611 
L 106.036364 10890.955611 
L 106.298182 10890.955611 
L 106.298182 10890.955611 
L 106.56 10890.955611 
L 106.56 10890.955611 
L 106.821818 10890.955611 
L 106.821818 10890.955611 
L 107.083636 10890.955611 
L 107.083636 10890.955611 
L 107.345455 10890.955611 
L 107.345455 10890.955611 
L 107.607273 10890.955611 
L 107.607273 10890.955611 
L 107.869091 10890.955611 
L 107.869091 10890.955611 
L 108.130909 10890.955611 
L 108.130909 10890.955611 
L 108.392727 10890.955611 
L 108.392727 10890.955611 
L 108.654545 10890.955611 
L 108.654545 10890.955611 
L 108.916364 10890.955611 
L 108.916364 10890.955611 
L 109.178182 10890.955611 
L 109.178182 10890.955611 
L 109.44 10890.955611 
L 109.44 10890.955611 
L 109.701818 10890.955611 
L 109.701818 10890.955611 
L 109.963636 10890.955611 
L 109.963636 10890.955611 
L 110.225455 10890.955611 
L 110.225455 10890.955611 
L 110.487273 10890.955611 
L 110.487273 10890.955611 
L 110.749091 10890.955611 
L 110.749091 10890.955611 
L 111.010909 10890.955611 
L 111.010909 10890.955611 
L 111.272727 10890.955611 
L 111.272727 10890.955611 
L 111.534545 10890.955611 
L 111.534545 10890.955611 
L 111.796364 10890.955611 
L 111.796364 10890.955611 
L 112.058182 10890.955611 
L 112.058182 10890.955611 
L 112.32 10890.955611 
L 112.32 10890.955611 
L 112.581818 10890.955611 
L 112.581818 10890.955611 
L 112.843636 10890.955611 
L 112.843636 10890.955611 
L 113.105455 10890.955611 
L 113.105455 10890.955611 
L 113.367273 10890.955611 
L 113.367273 10890.955611 
L 113.629091 10890.955611 
L 113.629091 10890.955611 
L 113.890909 10890.955611 
L 113.890909 10890.955611 
L 114.152727 10890.955611 
L 114.152727 10890.955611 
L 114.414545 10890.955611 
L 114.414545 10890.955611 
L 114.676364 10890.955611 
L 114.676364 10890.955611 
L 114.938182 10890.955611 
L 114.938182 10890.955611 
L 115.2 10890.955611 
L 115.2 10890.955611 
L 115.461818 10890.955611 
L 115.461818 10890.955611 
L 115.723636 10890.955611 
L 115.723636 10890.955611 
L 115.985455 10890.955611 
L 115.985455 10890.955611 
L 116.247273 10890.955611 
L 116.247273 10890.955611 
L 116.509091 10890.955611 
L 116.509091 10890.955611 
L 116.770909 10890.955611 
L 116.770909 10890.955611 
L 117.032727 10890.955611 
L 117.032727 10890.955611 
L 117.294545 10890.955611 
L 117.294545 10890.955611 
L 117.556364 10890.955611 
L 117.556364 10890.955611 
L 117.818182 10890.955611 
L 117.818182 10890.955611 
L 118.08 10890.955611 
L 118.08 10890.955611 
L 118.341818 10890.955611 
L 118.341818 10890.955611 
L 118.603636 10890.955611 
L 118.603636 10890.955611 
L 118.865455 10890.955611 
L 118.865455 10890.955611 
L 119.127273 10890.955611 
L 119.127273 10890.955611 
L 119.389091 10890.955611 
L 119.389091 10890.955611 
L 119.650909 10890.955611 
L 119.650909 10890.955611 
L 119.912727 10890.955611 
L 119.912727 10890.955611 
L 120.174545 10890.955611 
L 120.174545 10890.955611 
L 120.436364 10890.955611 
L 120.436364 10890.955611 
L 120.698182 10890.955611 
L 120.698182 10890.955611 
L 120.96 10890.955611 
L 120.96 10890.955611 
L 121.221818 10890.955611 
L 121.221818 10890.955611 
L 121.483636 10890.955611 
L 121.483636 10890.955611 
L 121.745455 10890.955611 
L 121.745455 10890.955611 
L 122.007273 10890.955611 
L 122.007273 10890.955611 
L 122.269091 10890.955611 
L 122.269091 10890.955611 
L 122.530909 10890.955611 
L 122.530909 10890.955611 
L 122.792727 10890.955611 
L 122.792727 10890.955611 
L 123.054545 10890.955611 
L 123.054545 10890.955611 
L 123.316364 10890.955611 
L 123.316364 10890.955611 
L 123.578182 10890.955611 
L 123.578182 10890.955611 
L 123.84 10890.955611 
L 123.84 10890.955611 
L 124.101818 10890.955611 
L 124.101818 10890.955611 
L 124.363636 10890.955611 
L 124.363636 10890.955611 
L 124.625455 10890.955611 
L 124.625455 10890.955611 
L 124.887273 10890.955611 
L 124.887273 10890.955611 
L 125.149091 10890.955611 
L 125.149091 10890.955611 
L 125.410909 10890.955611 
L 125.410909 10890.955611 
L 125.672727 10890.955611 
L 125.672727 10890.955611 
L 125.934545 10890.955611 
L 125.934545 10890.955611 
L 126.196364 10890.955611 
L 126.196364 10890.955611 
L 126.458182 10890.955611 
L 126.458182 10890.955611 
L 126.72 10890.955611 
L 126.72 10890.955611 
L 126.981818 10890.955611 
L 126.981818 10890.955611 
L 127.243636 10890.955611 
L 127.243636 10890.955611 
L 127.505455 10890.955611 
L 127.505455 10890.955611 
L 127.767273 10890.955611 
L 127.767273 10890.955611 
L 128.029091 10890.955611 
L 128.029091 10890.955611 
L 128.290909 10890.955611 
L 128.290909 10890.955611 
L 128.552727 10890.955611 
L 128.552727 10890.955611 
L 128.814545 10890.955611 
L 128.814545 10890.955611 
L 129.076364 10890.955611 
L 129.076364 10890.955611 
L 129.338182 10890.955611 
L 129.338182 10890.955611 
L 129.6 10890.955611 
L 129.6 10890.955611 
L 129.861818 10890.955611 
L 129.861818 10890.955611 
L 130.123636 10890.955611 
L 130.123636 10890.955611 
L 130.385455 10890.955611 
L 130.385455 10890.955611 
L 130.647273 10890.955611 
L 130.647273 10890.955611 
L 130.909091 10890.955611 
L 130.909091 10890.955611 
L 131.170909 10890.955611 
L 131.170909 10890.955611 
L 131.432727 10890.955611 
L 131.432727 10890.955611 
L 131.694545 10890.955611 
L 131.694545 10890.955611 
L 131.956364 10890.955611 
L 131.956364 10890.955611 
L 132.218182 10890.955611 
L 132.218182 10890.955611 
L 132.48 10890.955611 
L 132.48 10890.955611 
L 132.741818 10890.955611 
L 132.741818 10890.955611 
L 133.003636 10890.955611 
L 133.003636 10890.955611 
L 133.265455 10890.955611 
L 133.265455 10890.955611 
L 133.527273 10890.955611 
L 133.527273 10890.955611 
L 133.789091 10890.955611 
L 133.789091 10890.955611 
L 134.050909 10890.955611 
L 134.050909 10890.955611 
L 134.312727 10890.955611 
L 134.312727 10890.955611 
L 134.574545 10890.955611 
L 134.574545 10890.955611 
L 134.836364 10890.955611 
L 134.836364 10890.955611 
L 135.098182 10890.955611 
L 135.098182 10890.955611 
L 135.36 10890.955611 
L 135.36 10890.955611 
L 135.621818 10890.955611 
L 135.621818 10890.955611 
L 135.883636 10890.955611 
L 135.883636 10890.955611 
L 136.145455 10890.955611 
L 136.145455 10890.955611 
L 136.407273 10890.955611 
L 136.407273 10890.955611 
L 136.669091 10890.955611 
L 136.669091 10890.955611 
L 136.930909 10890.955611 
L 136.930909 10890.955611 
L 137.192727 10890.955611 
L 137.192727 10890.955611 
L 137.454545 10890.955611 
L 137.454545 10890.955611 
L 137.716364 10890.955611 
L 137.716364 10890.955611 
L 137.978182 10890.955611 
L 137.978182 10890.955611 
L 138.24 10890.955611 
L 138.24 10890.955611 
L 138.501818 10890.955611 
L 138.501818 10890.955611 
L 138.763636 10890.955611 
L 138.763636 10890.955611 
L 139.025455 10890.955611 
L 139.025455 10890.955611 
L 139.287273 10890.955611 
L 139.287273 10890.955611 
L 139.549091 10890.955611 
L 139.549091 10890.955611 
L 139.810909 10890.955611 
L 139.810909 10890.955611 
L 140.072727 10890.955611 
L 140.072727 10890.955611 
L 140.334545 10890.955611 
L 140.334545 10890.955611 
L 140.596364 10890.955611 
L 140.596364 10890.955611 
L 140.858182 10890.955611 
L 140.858182 10890.955611 
L 141.12 10890.955611 
L 141.12 10890.955611 
L 141.381818 10890.955611 
L 141.381818 10890.955611 
L 141.643636 10890.955611 
L 141.643636 10890.955611 
L 141.905455 10890.955611 
L 141.905455 10890.955611 
L 142.167273 10890.955611 
L 142.167273 10890.955611 
L 142.429091 10890.955611 
L 142.429091 10890.955611 
L 142.690909 10890.955611 
L 142.690909 10890.955611 
L 142.952727 10890.955611 
L 142.952727 10890.955611 
L 143.214545 10890.955611 
L 143.214545 10890.955611 
L 143.476364 10890.955611 
L 143.476364 10890.955611 
L 143.738182 10890.955611 
L 143.738182 10890.955611 
L 144 10890.955611 
L 144 10890.955611 
L 144.261818 10890.955611 
L 144.261818 10890.955611 
L 144.523636 10890.955611 
L 144.523636 10890.955611 
L 144.785455 10890.955611 
L 144.785455 10890.955611 
L 145.047273 10890.955611 
L 145.047273 10890.955611 
L 145.309091 10890.955611 
L 145.309091 10890.955611 
L 145.570909 10890.955611 
L 145.570909 10890.955611 
L 145.832727 10890.955611 
L 145.832727 10890.955611 
L 146.094545 10890.955611 
L 146.094545 10890.955611 
L 146.356364 10890.955611 
L 146.356364 10890.955611 
L 146.618182 10890.955611 
L 146.618182 10890.955611 
L 146.88 10890.955611 
L 146.88 10890.955611 
L 147.141818 10890.955611 
L 147.141818 10890.955611 
L 147.403636 10890.955611 
L 147.403636 10890.955611 
L 147.665455 10890.955611 
L 147.665455 10890.955611 
L 147.927273 10890.955611 
L 147.927273 10890.955611 
L 148.189091 10890.955611 
L 148.189091 10890.955611 
L 148.450909 10890.955611 
L 148.450909 10890.955611 
L 148.712727 10890.955611 
L 148.712727 10890.955611 
L 148.974545 10890.955611 
L 148.974545 10890.955611 
L 149.236364 10890.955611 
L 149.236364 10890.955611 
L 149.498182 10890.955611 
L 149.498182 10890.955611 
L 149.76 10890.955611 
L 149.76 10890.955611 
L 150.021818 10890.955611 
L 150.021818 10890.955611 
L 150.283636 10890.955611 
L 150.283636 10890.955611 
L 150.545455 10890.955611 
L 150.545455 10890.955611 
L 150.807273 10890.955611 
L 150.807273 10890.955611 
L 151.069091 10890.955611 
L 151.069091 10890.955611 
L 151.330909 10890.955611 
L 151.330909 10890.955611 
L 151.592727 10890.955611 
L 151.592727 10890.955611 
L 151.854545 10890.955611 
L 151.854545 10890.955611 
L 152.116364 10890.955611 
L 152.116364 10890.955611 
L 152.378182 10890.955611 
L 152.378182 10890.955611 
L 152.64 10890.955611 
L 152.64 10890.955611 
L 152.901818 10890.955611 
L 152.901818 10890.955611 
L 153.163636 10890.955611 
L 153.163636 10890.955611 
L 153.425455 10890.955611 
L 153.425455 10890.955611 
L 153.687273 10890.955611 
L 153.687273 10890.955611 
L 153.949091 10890.955611 
L 153.949091 10890.955611 
L 154.210909 10890.955611 
L 154.210909 10890.955611 
L 154.472727 10890.955611 
L 154.472727 10890.955611 
L 154.734545 10890.955611 
L 154.734545 10890.955611 
L 154.996364 10890.955611 
L 154.996364 10890.955611 
L 155.258182 10890.955611 
L 155.258182 10890.955611 
L 155.52 10890.955611 
L 155.52 10890.955611 
L 155.781818 10890.955611 
L 155.781818 10890.955611 
L 156.043636 10890.955611 
L 156.043636 10890.955611 
L 156.305455 10890.955611 
L 156.305455 10890.955611 
L 156.567273 10890.955611 
L 156.567273 10890.955611 
L 156.829091 10890.955611 
L 156.829091 10890.955611 
L 157.090909 10890.955611 
L 157.090909 10890.955611 
L 157.352727 10890.955611 
L 157.352727 10890.955611 
L 157.614545 10890.955611 
L 157.614545 10890.955611 
L 157.876364 10890.955611 
L 157.876364 10890.955611 
L 158.138182 10890.955611 
L 158.138182 10890.955611 
L 158.4 10890.955611 
L 158.4 10890.955611 
L 158.661818 10890.955611 
L 158.661818 10890.955611 
L 158.923636 10890.955611 
L 158.923636 10890.955611 
L 159.185455 10890.955611 
L 159.185455 10890.955611 
L 159.447273 10890.955611 
L 159.447273 10890.955611 
L 159.709091 10890.955611 
L 159.709091 10890.955611 
L 159.970909 10890.955611 
L 159.970909 10890.955611 
L 160.232727 10890.955611 
L 160.232727 10890.955611 
L 160.494545 10890.955611 
L 160.494545 10890.955611 
L 160.756364 10890.955611 
L 160.756364 10890.955611 
L 161.018182 10890.955611 
L 161.018182 10890.955611 
L 161.28 10890.955611 
L 161.28 10890.955611 
L 161.541818 10890.955611 
L 161.541818 10890.955611 
L 161.803636 10890.955611 
L 161.803636 10890.955611 
L 162.065455 10890.955611 
L 162.065455 10890.955611 
L 162.327273 10890.955611 
L 162.327273 10890.955611 
L 162.589091 10890.955611 
L 162.589091 10890.955611 
L 162.850909 10890.955611 
L 162.850909 10890.955611 
L 163.112727 10890.955611 
L 163.112727 10890.955611 
L 163.374545 10890.955611 
L 163.374545 10890.955611 
L 163.636364 10890.955611 
L 163.636364 10890.955611 
L 163.898182 10890.955611 
L 163.898182 10890.955611 
L 164.16 10890.955611 
L 164.16 10890.955611 
L 164.421818 10890.955611 
L 164.421818 10890.955611 
L 164.683636 10890.955611 
L 164.683636 10890.955611 
L 164.945455 10890.955611 
L 164.945455 10890.955611 
L 165.207273 10890.955611 
L 165.207273 10890.955611 
L 165.469091 10890.955611 
L 165.469091 10890.955611 
L 165.730909 10890.955611 
L 165.730909 10890.955611 
L 165.992727 10890.955611 
L 165.992727 10890.955611 
L 166.254545 10890.955611 
L 166.254545 10890.955611 
L 166.516364 10890.955611 
L 166.516364 10890.955611 
L 166.778182 10890.955611 
L 166.778182 10890.955611 
L 167.04 10890.955611 
L 167.04 10890.955611 
L 167.301818 10890.955611 
L 167.301818 10890.955611 
L 167.563636 10890.955611 
L 167.563636 10890.955611 
L 167.825455 10890.955611 
L 167.825455 10890.955611 
L 168.087273 10890.955611 
L 168.087273 10890.955611 
L 168.349091 10890.955611 
L 168.349091 10890.955611 
L 168.610909 10890.955611 
L 168.610909 10890.955611 
L 168.872727 10890.955611 
L 168.872727 10890.955611 
L 169.134545 10890.955611 
L 169.134545 10890.955611 
L 169.396364 10890.955611 
L 169.396364 10890.955611 
L 169.658182 10890.955611 
L 169.658182 10890.955611 
L 169.92 10890.955611 
L 169.92 10890.955611 
L 170.181818 10890.955611 
L 170.181818 10890.955611 
L 170.443636 10890.955611 
L 170.443636 10890.955611 
L 170.705455 10890.955611 
L 170.705455 10890.955611 
L 170.967273 10890.955611 
L 170.967273 10890.955611 
L 171.229091 10890.955611 
L 171.229091 10890.955611 
L 171.490909 10890.955611 
L 171.490909 10890.955611 
L 171.752727 10890.955611 
L 171.752727 10890.955611 
L 172.014545 10890.955611 
L 172.014545 10890.955611 
L 172.276364 10890.955611 
L 172.276364 10890.955611 
L 172.538182 10890.955611 
L 172.538182 10890.955611 
L 172.8 10890.955611 
L 172.8 10890.955611 
L 173.061818 10890.955611 
L 173.061818 10890.955611 
L 173.323636 10890.955611 
L 173.323636 10890.955611 
L 173.585455 10890.955611 
L 173.585455 10890.955611 
L 173.847273 10890.955611 
L 173.847273 10890.955611 
L 174.109091 10890.955611 
L 174.109091 10890.955611 
L 174.370909 10890.955611 
L 174.370909 10890.955611 
L 174.632727 10890.955611 
L 174.632727 10890.955611 
L 174.894545 10890.955611 
L 174.894545 10890.955611 
L 175.156364 10890.955611 
L 175.156364 10890.955611 
L 175.418182 10890.955611 
L 175.418182 10890.955611 
L 175.68 10890.955611 
L 175.68 10890.955611 
L 175.941818 10890.955611 
L 175.941818 10890.955611 
L 176.203636 10890.955611 
L 176.203636 10890.955611 
L 176.465455 10890.955611 
L 176.465455 10890.955611 
L 176.727273 10890.955611 
L 176.727273 10890.955611 
L 176.989091 10890.955611 
L 176.989091 10890.955611 
L 177.250909 10890.955611 
L 177.250909 10890.955611 
L 177.512727 10890.955611 
L 177.512727 10890.955611 
L 177.774545 10890.955611 
L 177.774545 10890.955611 
L 178.036364 10890.955611 
L 178.036364 10890.955611 
L 178.298182 10890.955611 
L 178.298182 10890.955611 
L 178.56 10890.955611 
L 178.56 10890.955611 
L 178.821818 10890.955611 
L 178.821818 10890.955611 
L 179.083636 10890.955611 
L 179.083636 10890.955611 
L 179.345455 10890.955611 
L 179.345455 10890.955611 
L 179.607273 10890.955611 
L 179.607273 10890.955611 
L 179.869091 10890.955611 
L 179.869091 10890.955611 
L 180.130909 10890.955611 
L 180.130909 10890.955611 
L 180.392727 10890.955611 
L 180.392727 10890.955611 
L 180.654545 10890.955611 
L 180.654545 10890.955611 
L 180.916364 10890.955611 
L 180.916364 10890.955611 
L 181.178182 10890.955611 
L 181.178182 10890.955611 
L 181.44 10890.955611 
L 181.44 10890.955611 
L 181.701818 10890.955611 
L 181.701818 10890.955611 
L 181.963636 10890.955611 
L 181.963636 10890.955611 
L 182.225455 10890.955611 
L 182.225455 10890.955611 
L 182.487273 10890.955611 
L 182.487273 10890.955611 
L 182.749091 10890.955611 
L 182.749091 10890.955611 
L 183.010909 10890.955611 
L 183.010909 10890.955611 
L 183.272727 10890.955611 
L 183.272727 10890.955611 
L 183.534545 10890.955611 
L 183.534545 10890.955611 
L 183.796364 10890.955611 
L 183.796364 10890.955611 
L 184.058182 10890.955611 
L 184.058182 10890.955611 
L 184.32 10890.955611 
L 184.32 10890.955611 
L 184.581818 10890.955611 
L 184.581818 10890.955611 
L 184.843636 10890.955611 
L 184.843636 10890.955611 
L 185.105455 10890.955611 
L 185.105455 10890.955611 
L 185.367273 10890.955611 
L 185.367273 10890.955611 
L 185.629091 10890.955611 
L 185.629091 10890.955611 
L 185.890909 10890.955611 
L 185.890909 10890.955611 
L 186.152727 10890.955611 
L 186.152727 10890.955611 
L 186.414545 10890.955611 
L 186.414545 10890.955611 
L 186.676364 10890.955611 
L 186.676364 10890.955611 
L 186.938182 10890.955611 
L 186.938182 10890.955611 
L 187.2 10890.955611 
L 187.2 10890.955611 
L 187.461818 10890.955611 
L 187.461818 10890.955611 
L 187.723636 10890.955611 
L 187.723636 10890.955611 
L 187.985455 10890.955611 
L 187.985455 10890.955611 
L 188.247273 10890.955611 
L 188.247273 10890.955611 
L 188.509091 10890.955611 
L 188.509091 10890.955611 
L 188.770909 10890.955611 
L 188.770909 10890.955611 
L 189.032727 10890.955611 
L 189.032727 10890.955611 
L 189.294545 10890.955611 
L 189.294545 10890.955611 
L 189.556364 10890.955611 
L 189.556364 10890.955611 
L 189.818182 10890.955611 
L 189.818182 10890.955611 
L 190.08 10890.955611 
L 190.08 10890.955611 
L 190.341818 10890.955611 
L 190.341818 10890.955611 
L 190.603636 10890.955611 
L 190.603636 10890.955611 
L 190.865455 10890.955611 
L 190.865455 10890.955611 
L 191.127273 10890.955611 
L 191.127273 10890.955611 
L 191.389091 10890.955611 
L 191.389091 10890.955611 
L 191.650909 10890.955611 
L 191.650909 10890.955611 
L 191.912727 10890.955611 
L 191.912727 10890.955611 
L 192.174545 10890.955611 
L 192.174545 10890.955611 
L 192.436364 10890.955611 
L 192.436364 10890.955611 
L 192.698182 10890.955611 
L 192.698182 10890.955611 
L 192.96 10890.955611 
L 192.96 10890.955611 
L 193.221818 10890.955611 
L 193.221818 10890.955611 
L 193.483636 10890.955611 
L 193.483636 10890.955611 
L 193.745455 10890.955611 
L 193.745455 10890.955611 
L 194.007273 10890.955611 
L 194.007273 10890.955611 
L 194.269091 10890.955611 
L 194.269091 10890.955611 
L 194.530909 10890.955611 
L 194.530909 10890.955611 
L 194.792727 10890.955611 
L 194.792727 10890.955611 
L 195.054545 10890.955611 
L 195.054545 10890.955611 
L 195.316364 10890.955611 
L 195.316364 10890.955611 
L 195.578182 10890.955611 
L 195.578182 10890.955611 
L 195.84 10890.955611 
L 195.84 10890.955611 
L 196.101818 10890.955611 
L 196.101818 10890.955611 
L 196.363636 10890.955611 
L 196.363636 10890.955611 
L 196.625455 10890.955611 
L 196.625455 10890.955611 
L 196.887273 10890.955611 
L 196.887273 10890.955611 
L 197.149091 10890.955611 
L 197.149091 10890.955611 
L 197.410909 10890.955611 
L 197.410909 10890.955611 
L 197.672727 10890.955611 
L 197.672727 10890.955611 
L 197.934545 10890.955611 
L 197.934545 10890.955611 
L 198.196364 10890.955611 
L 198.196364 10890.955611 
L 198.458182 10890.955611 
L 198.458182 10890.955611 
L 198.72 10890.955611 
L 198.72 10890.955611 
L 198.981818 10890.955611 
L 198.981818 10890.955611 
L 199.243636 10890.955611 
L 199.243636 10890.955611 
L 199.505455 10890.955611 
L 199.505455 10890.955611 
L 199.767273 10890.955611 
L 199.767273 10890.955611 
L 200.029091 10890.955611 
L 200.029091 10890.955611 
L 200.290909 10890.955611 
L 200.290909 10890.955611 
L 200.552727 10890.955611 
L 200.552727 10890.955611 
L 200.814545 10890.955611 
L 200.814545 10890.955611 
L 201.076364 10890.955611 
L 201.076364 10890.955611 
L 201.338182 10890.955611 
L 201.338182 10890.955611 
L 201.6 10890.955611 
L 201.6 10890.955611 
L 201.861818 10890.955611 
L 201.861818 10890.955611 
L 202.123636 10890.955611 
L 202.123636 10890.955611 
L 202.385455 10890.955611 
L 202.385455 10890.955611 
L 202.647273 10890.955611 
L 202.647273 10890.955611 
L 202.909091 10890.955611 
L 202.909091 10890.955611 
L 203.170909 10890.955611 
L 203.170909 10890.955611 
L 203.432727 10890.955611 
L 203.432727 10890.955611 
L 203.694545 10890.955611 
L 203.694545 10890.955611 
L 203.956364 10890.955611 
L 203.956364 10890.955611 
L 204.218182 10890.955611 
L 204.218182 10890.955611 
L 204.48 10890.955611 
L 204.48 10890.955611 
L 204.741818 10890.955611 
L 204.741818 10890.955611 
L 205.003636 10890.955611 
L 205.003636 10890.955611 
L 205.265455 10890.955611 
L 205.265455 10890.955611 
L 205.527273 10890.955611 
L 205.527273 10890.955611 
L 205.789091 10890.955611 
L 205.789091 10890.955611 
L 206.050909 10890.955611 
L 206.050909 10890.955611 
L 206.312727 10890.955611 
L 206.312727 10890.955611 
L 206.574545 10890.955611 
L 206.574545 10890.955611 
L 206.836364 10890.955611 
L 206.836364 10890.955611 
L 207.098182 10890.955611 
L 207.098182 10890.955611 
L 207.36 10890.955611 
L 207.36 10890.955611 
L 207.621818 10890.955611 
L 207.621818 10890.955611 
L 207.883636 10890.955611 
L 207.883636 10890.955611 
L 208.145455 10890.955611 
L 208.145455 10890.955611 
L 208.407273 10890.955611 
L 208.407273 10890.955611 
L 208.669091 10890.955611 
L 208.669091 10890.955611 
L 208.930909 10890.955611 
L 208.930909 10890.955611 
L 209.192727 10890.955611 
L 209.192727 10890.955611 
L 209.454545 10890.955611 
L 209.454545 10890.955611 
L 209.454545 118.472727 
L 209.454545 118.472727 
L 209.454545 118.472727 
L 209.192727 118.472727 
L 209.192727 10890.955611 
L 208.930909 10890.955611 
L 208.930909 10890.955611 
L 208.669091 10890.955611 
L 208.669091 10890.955611 
L 208.407273 10890.955611 
L 208.407273 10890.955611 
L 208.145455 10890.955611 
L 208.145455 10890.955611 
L 207.883636 10890.955611 
L 207.883636 10890.955611 
L 207.621818 10890.955611 
L 207.621818 10890.955611 
L 207.36 10890.955611 
L 207.36 10890.955611 
L 207.098182 10890.955611 
L 207.098182 10890.955611 
L 206.836364 10890.955611 
L 206.836364 10890.955611 
L 206.574545 10890.955611 
L 206.574545 10890.955611 
L 206.312727 10890.955611 
L 206.312727 10890.955611 
L 206.050909 10890.955611 
L 206.050909 10890.955611 
L 205.789091 10890.955611 
L 205.789091 10890.955611 
L 205.527273 10890.955611 
L 205.527273 10890.955611 
L 205.265455 10890.955611 
L 205.265455 10890.955611 
L 205.003636 10890.955611 
L 205.003636 10890.955611 
L 204.741818 10890.955611 
L 204.741818 10890.955611 
L 204.48 10890.955611 
L 204.48 10890.955611 
L 204.218182 10890.955611 
L 204.218182 10890.955611 
L 203.956364 10890.955611 
L 203.956364 10890.955611 
L 203.694545 10890.955611 
L 203.694545 10890.955611 
L 203.432727 10890.955611 
L 203.432727 10890.955611 
L 203.170909 10890.955611 
L 203.170909 10890.955611 
L 202.909091 10890.955611 
L 202.909091 10890.955611 
L 202.647273 10890.955611 
L 202.647273 10890.955611 
L 202.385455 10890.955611 
L 202.385455 10890.955611 
L 202.123636 10890.955611 
L 202.123636 10890.955611 
L 201.861818 10890.955611 
L 201.861818 10890.955611 
L 201.6 10890.955611 
L 201.6 10890.955611 
L 201.338182 10890.955611 
L 201.338182 10890.955611 
L 201.076364 10890.955611 
L 201.076364 10890.955611 
L 200.814545 10890.955611 
L 200.814545 10890.955611 
L 200.552727 10890.955611 
L 200.552727 10890.955611 
L 200.290909 10890.955611 
L 200.290909 10890.955611 
L 200.029091 10890.955611 
L 200.029091 10890.955611 
L 199.767273 10890.955611 
L 199.767273 10890.955611 
L 199.505455 10890.955611 
L 199.505455 10890.955611 
L 199.243636 10890.955611 
L 199.243636 10890.955611 
L 198.981818 10890.955611 
L 198.981818 10890.955611 
L 198.72 10890.955611 
L 198.72 10890.955611 
L 198.458182 10890.955611 
L 198.458182 10890.955611 
L 198.196364 10890.955611 
L 198.196364 10890.955611 
L 197.934545 10890.955611 
L 197.934545 10890.955611 
L 197.672727 10890.955611 
L 197.672727 10890.955611 
L 197.410909 10890.955611 
L 197.410909 10890.955611 
L 197.149091 10890.955611 
L 197.149091 10890.955611 
L 196.887273 10890.955611 
L 196.887273 10890.955611 
L 196.625455 10890.955611 
L 196.625455 10890.955611 
L 196.363636 10890.955611 
L 196.363636 10890.955611 
L 196.101818 10890.955611 
L 196.101818 10890.955611 
L 195.84 10890.955611 
L 195.84 10890.955611 
L 195.578182 10890.955611 
L 195.578182 118.472727 
L 195.316364 118.472727 
L 195.316364 10890.955611 
L 195.054545 10890.955611 
L 195.054545 118.472727 
L 194.792727 118.472727 
L 194.792727 10890.955611 
L 194.530909 10890.955611 
L 194.530909 10890.955611 
L 194.269091 10890.955611 
L 194.269091 10890.955611 
L 194.007273 10890.955611 
L 194.007273 10890.955611 
L 193.745455 10890.955611 
L 193.745455 10890.955611 
L 193.483636 10890.955611 
L 193.483636 10890.955611 
L 193.221818 10890.955611 
L 193.221818 10890.955611 
L 192.96 10890.955611 
L 192.96 10890.955611 
L 192.698182 10890.955611 
L 192.698182 10890.955611 
L 192.436364 10890.955611 
L 192.436364 10890.955611 
L 192.174545 10890.955611 
L 192.174545 10890.955611 
L 191.912727 10890.955611 
L 191.912727 10890.955611 
L 191.650909 10890.955611 
L 191.650909 115.213337 
L 191.389091 115.213337 
L 191.389091 10890.955611 
L 191.127273 10890.955611 
L 191.127273 10890.955611 
L 190.865455 10890.955611 
L 190.865455 10890.955611 
L 190.603636 10890.955611 
L 190.603636 10890.955611 
L 190.341818 10890.955611 
L 190.341818 118.472727 
L 190.08 118.472727 
L 190.08 10890.955611 
L 189.818182 10890.955611 
L 189.818182 10890.955611 
L 189.556364 10890.955611 
L 189.556364 10890.955611 
L 189.294545 10890.955611 
L 189.294545 10890.955611 
L 189.032727 10890.955611 
L 189.032727 10890.955611 
L 188.770909 10890.955611 
L 188.770909 10890.955611 
L 188.509091 10890.955611 
L 188.509091 10890.955611 
L 188.247273 10890.955611 
L 188.247273 10890.955611 
L 187.985455 10890.955611 
L 187.985455 10890.955611 
L 187.723636 10890.955611 
L 187.723636 10890.955611 
L 187.461818 10890.955611 
L 187.461818 118.472727 
L 187.2 118.472727 
L 187.2 10890.955611 
L 186.938182 10890.955611 
L 186.938182 118.472727 
L 186.676364 118.472727 
L 186.676364 10890.955611 
L 186.414545 10890.955611 
L 186.414545 10890.955611 
L 186.152727 10890.955611 
L 186.152727 118.472727 
L 185.890909 118.472727 
L 185.890909 10890.955611 
L 185.629091 10890.955611 
L 185.629091 10890.955611 
L 185.367273 10890.955611 
L 185.367273 10890.955611 
L 185.105455 10890.955611 
L 185.105455 10890.955611 
L 184.843636 10890.955611 
L 184.843636 10890.955611 
L 184.581818 10890.955611 
L 184.581818 10890.955611 
L 184.32 10890.955611 
L 184.32 10890.955611 
L 184.058182 10890.955611 
L 184.058182 10890.955611 
L 183.796364 10890.955611 
L 183.796364 10890.955611 
L 183.534545 10890.955611 
L 183.534545 10890.955611 
L 183.272727 10890.955611 
L 183.272727 10890.955611 
L 183.010909 10890.955611 
L 183.010909 10890.955611 
L 182.749091 10890.955611 
L 182.749091 10890.955611 
L 182.487273 10890.955611 
L 182.487273 118.472727 
L 182.225455 118.472727 
L 182.225455 10890.955611 
L 181.963636 10890.955611 
L 181.963636 10890.955611 
L 181.701818 10890.955611 
L 181.701818 10890.955611 
L 181.44 10890.955611 
L 181.44 10890.955611 
L 181.178182 10890.955611 
L 181.178182 10890.955611 
L 180.916364 10890.955611 
L 180.916364 10890.955611 
L 180.654545 10890.955611 
L 180.654545 118.472727 
L 180.392727 118.472727 
L 180.392727 10890.955611 
L 180.130909 10890.955611 
L 180.130909 10890.955611 
L 179.869091 10890.955611 
L 179.869091 10890.955611 
L 179.607273 10890.955611 
L 179.607273 10890.955611 
L 179.345455 10890.955611 
L 179.345455 115.213337 
L 179.083636 115.213337 
L 179.083636 118.472727 
L 178.821818 118.472727 
L 178.821818 115.213337 
L 178.56 115.213337 
L 178.56 10890.955611 
L 178.298182 10890.955611 
L 178.298182 118.472727 
L 178.036364 118.472727 
L 178.036364 10890.955611 
L 177.774545 10890.955611 
L 177.774545 118.472727 
L 177.512727 118.472727 
L 177.512727 10890.955611 
L 177.250909 10890.955611 
L 177.250909 10890.955611 
L 176.989091 10890.955611 
L 176.989091 10890.955611 
L 176.727273 10890.955611 
L 176.727273 10890.955611 
L 176.465455 10890.955611 
L 176.465455 10890.955611 
L 176.203636 10890.955611 
L 176.203636 10890.955611 
L 175.941818 10890.955611 
L 175.941818 118.472727 
L 175.68 118.472727 
L 175.68 118.472727 
L 175.418182 118.472727 
L 175.418182 115.213337 
L 175.156364 115.213337 
L 175.156364 10890.955611 
L 174.894545 10890.955611 
L 174.894545 113.306717 
L 174.632727 113.306717 
L 174.632727 118.472727 
L 174.370909 118.472727 
L 174.370909 10890.955611 
L 174.109091 10890.955611 
L 174.109091 118.472727 
L 173.847273 118.472727 
L 173.847273 118.472727 
L 173.585455 118.472727 
L 173.585455 10890.955611 
L 173.323636 10890.955611 
L 173.323636 118.472727 
L 173.061818 118.472727 
L 173.061818 10890.955611 
L 172.8 10890.955611 
L 172.8 10890.955611 
L 172.538182 10890.955611 
L 172.538182 115.213337 
L 172.276364 115.213337 
L 172.276364 10890.955611 
L 172.014545 10890.955611 
L 172.014545 115.213337 
L 171.752727 115.213337 
L 171.752727 10890.955611 
L 171.490909 10890.955611 
L 171.490909 118.472727 
L 171.229091 118.472727 
L 171.229091 113.306717 
L 170.967273 113.306717 
L 170.967273 10890.955611 
L 170.705455 10890.955611 
L 170.705455 10890.955611 
L 170.443636 10890.955611 
L 170.443636 118.472727 
L 170.181818 118.472727 
L 170.181818 10890.955611 
L 169.92 10890.955611 
L 169.92 10890.955611 
L 169.658182 10890.955611 
L 169.658182 118.472727 
L 169.396364 118.472727 
L 169.396364 118.472727 
L 169.134545 118.472727 
L 169.134545 10890.955611 
L 168.872727 10890.955611 
L 168.872727 118.472727 
L 168.610909 118.472727 
L 168.610909 10890.955611 
L 168.349091 10890.955611 
L 168.349091 10890.955611 
L 168.087273 10890.955611 
L 168.087273 111.953948 
L 167.825455 111.953948 
L 167.825455 115.213337 
L 167.563636 115.213337 
L 167.563636 118.472727 
L 167.301818 118.472727 
L 167.301818 10890.955611 
L 167.04 10890.955611 
L 167.04 118.472727 
L 166.778182 118.472727 
L 166.778182 10890.955611 
L 166.516364 10890.955611 
L 166.516364 115.213337 
L 166.254545 115.213337 
L 166.254545 10890.955611 
L 165.992727 10890.955611 
L 165.992727 10890.955611 
L 165.730909 10890.955611 
L 165.730909 118.472727 
L 165.469091 118.472727 
L 165.469091 118.472727 
L 165.207273 118.472727 
L 165.207273 115.213337 
L 164.945455 115.213337 
L 164.945455 118.472727 
L 164.683636 118.472727 
L 164.683636 115.213337 
L 164.421818 115.213337 
L 164.421818 118.472727 
L 164.16 118.472727 
L 164.16 113.306717 
L 163.898182 113.306717 
L 163.898182 118.472727 
L 163.636364 118.472727 
L 163.636364 115.213337 
L 163.374545 115.213337 
L 163.374545 118.472727 
L 163.112727 118.472727 
L 163.112727 113.306717 
L 162.850909 113.306717 
L 162.850909 10890.955611 
L 162.589091 10890.955611 
L 162.589091 118.472727 
L 162.327273 118.472727 
L 162.327273 113.306717 
L 162.065455 113.306717 
L 162.065455 110.904659 
L 161.803636 110.904659 
L 161.803636 115.213337 
L 161.541818 115.213337 
L 161.541818 111.953948 
L 161.28 111.953948 
L 161.28 113.306717 
L 161.018182 113.306717 
L 161.018182 110.047327 
L 160.756364 110.047327 
L 160.756364 113.306717 
L 160.494545 113.306717 
L 160.494545 118.472727 
L 160.232727 118.472727 
L 160.232727 113.306717 
L 159.970909 113.306717 
L 159.970909 118.472727 
L 159.709091 118.472727 
L 159.709091 115.213337 
L 159.447273 115.213337 
L 159.447273 115.213337 
L 159.185455 115.213337 
L 159.185455 115.213337 
L 158.923636 115.213337 
L 158.923636 10890.955611 
L 158.661818 10890.955611 
L 158.661818 111.953948 
L 158.4 111.953948 
L 158.4 113.306717 
L 158.138182 113.306717 
L 158.138182 110.904659 
L 157.876364 110.904659 
L 157.876364 115.213337 
L 157.614545 115.213337 
L 157.614545 113.306717 
L 157.352727 113.306717 
L 157.352727 115.213337 
L 157.090909 115.213337 
L 157.090909 111.953948 
L 156.829091 111.953948 
L 156.829091 111.953948 
L 156.567273 111.953948 
L 156.567273 10890.955611 
L 156.305455 10890.955611 
L 156.305455 111.953948 
L 156.043636 111.953948 
L 156.043636 118.472727 
L 155.781818 118.472727 
L 155.781818 111.953948 
L 155.52 111.953948 
L 155.52 111.953948 
L 155.258182 111.953948 
L 155.258182 113.306717 
L 154.996364 113.306717 
L 154.996364 111.953948 
L 154.734545 111.953948 
L 154.734545 115.213337 
L 154.472727 115.213337 
L 154.472727 113.306717 
L 154.210909 113.306717 
L 154.210909 118.472727 
L 153.949091 118.472727 
L 153.949091 111.953948 
L 153.687273 111.953948 
L 153.687273 111.953948 
L 153.425455 111.953948 
L 153.425455 118.472727 
L 153.163636 118.472727 
L 153.163636 113.306717 
L 152.901818 113.306717 
L 152.901818 110.904659 
L 152.64 110.904659 
L 152.64 109.322463 
L 152.378182 109.322463 
L 152.378182 110.047327 
L 152.116364 110.047327 
L 152.116364 110.047327 
L 151.854545 110.047327 
L 151.854545 108.694558 
L 151.592727 108.694558 
L 151.592727 109.322463 
L 151.330909 109.322463 
L 151.330909 110.904659 
L 151.069091 110.904659 
L 151.069091 110.047327 
L 150.807273 110.047327 
L 150.807273 109.322463 
L 150.545455 109.322463 
L 150.545455 111.953948 
L 150.283636 111.953948 
L 150.283636 111.953948 
L 150.021818 111.953948 
L 150.021818 110.904659 
L 149.76 110.904659 
L 149.76 107.645269 
L 149.498182 107.645269 
L 149.498182 109.322463 
L 149.236364 109.322463 
L 149.236364 108.694558 
L 148.974545 108.694558 
L 148.974545 107.645269 
L 148.712727 107.645269 
L 148.712727 110.904659 
L 148.450909 110.904659 
L 148.450909 108.694558 
L 148.189091 108.694558 
L 148.189091 109.322463 
L 147.927273 109.322463 
L 147.927273 110.047327 
L 147.665455 110.047327 
L 147.665455 109.322463 
L 147.403636 109.322463 
L 147.403636 110.904659 
L 147.141818 110.904659 
L 147.141818 106.063074 
L 146.88 106.063074 
L 146.88 106.411552 
L 146.618182 106.411552 
L 146.618182 110.047327 
L 146.356364 110.047327 
L 146.356364 108.140706 
L 146.094545 108.140706 
L 146.094545 107.645269 
L 145.832727 107.645269 
L 145.832727 111.953948 
L 145.570909 111.953948 
L 145.570909 108.140706 
L 145.309091 108.140706 
L 145.309091 111.953948 
L 145.047273 111.953948 
L 145.047273 110.904659 
L 144.785455 110.904659 
L 144.785455 107.645269 
L 144.523636 107.645269 
L 144.523636 106.787937 
L 144.261818 106.787937 
L 144.261818 110.047327 
L 144 110.047327 
L 144 106.787937 
L 143.738182 106.787937 
L 143.738182 106.063074 
L 143.476364 106.063074 
L 143.476364 108.140706 
L 143.214545 108.140706 
L 143.214545 106.063074 
L 142.952727 106.063074 
L 142.952727 107.197091 
L 142.690909 107.197091 
L 142.690909 107.197091 
L 142.429091 107.197091 
L 142.429091 106.411552 
L 142.167273 106.411552 
L 142.167273 105.435168 
L 141.905455 105.435168 
L 141.905455 106.411552 
L 141.643636 106.411552 
L 141.643636 105.738648 
L 141.381818 105.738648 
L 141.381818 107.197091 
L 141.12 107.197091 
L 141.12 104.881316 
L 140.858182 104.881316 
L 140.858182 106.063074 
L 140.596364 106.063074 
L 140.596364 107.645269 
L 140.334545 107.645269 
L 140.334545 104.881316 
L 140.072727 104.881316 
L 140.072727 106.787937 
L 139.810909 106.787937 
L 139.810909 105.738648 
L 139.549091 105.738648 
L 139.549091 103.728676 
L 139.287273 103.728676 
L 139.287273 103.33659 
L 139.025455 103.33659 
L 139.025455 105.150093 
L 138.763636 105.150093 
L 138.763636 103.528547 
L 138.501818 103.528547 
L 138.501818 103.33659 
L 138.24 103.33659 
L 138.24 105.435168 
L 137.978182 105.435168 
L 137.978182 105.435168 
L 137.716364 105.435168 
L 137.716364 104.881316 
L 137.454545 104.881316 
L 137.454545 104.385879 
L 137.192727 104.385879 
L 137.192727 103.937701 
L 136.930909 103.937701 
L 136.930909 104.156453 
L 136.669091 104.156453 
L 136.669091 105.150093 
L 136.407273 105.150093 
L 136.407273 102.803684 
L 136.145455 102.803684 
L 136.145455 104.385879 
L 135.883636 104.385879 
L 135.883636 105.150093 
L 135.621818 105.150093 
L 135.621818 103.33659 
L 135.36 103.33659 
L 135.36 102.638674 
L 135.098182 102.638674 
L 135.098182 102.638674 
L 134.836364 102.638674 
L 134.836364 102.32507 
L 134.574545 102.32507 
L 134.574545 103.528547 
L 134.312727 103.528547 
L 134.312727 103.152162 
L 134.050909 103.152162 
L 134.050909 102.32507 
L 133.789091 102.32507 
L 133.789091 103.937701 
L 133.527273 103.937701 
L 133.527273 102.803684 
L 133.265455 102.803684 
L 133.265455 103.152162 
L 133.003636 103.152162 
L 133.003636 102.32507 
L 132.741818 102.32507 
L 132.741818 102.031081 
L 132.48 102.031081 
L 132.48 100.678312 
L 132.218182 100.678312 
L 132.218182 101.754395 
L 131.956364 101.754395 
L 131.956364 100.368157 
L 131.694545 100.368157 
L 131.694545 101.890703 
L 131.432727 101.890703 
L 131.432727 100.678312 
L 131.170909 100.678312 
L 131.170909 100.572637 
L 130.909091 100.572637 
L 130.909091 99.984082 
L 130.647273 99.984082 
L 130.647273 101.010377 
L 130.385455 101.010377 
L 130.385455 100.786415 
L 130.123636 100.786415 
L 130.123636 100.678312 
L 129.861818 100.678312 
L 129.861818 101.010377 
L 129.6 101.010377 
L 129.6 101.367686 
L 129.338182 101.367686 
L 129.338182 100.172199 
L 129.076364 100.172199 
L 129.076364 99.715306 
L 128.814545 99.715306 
L 128.814545 100.0772 
L 128.552727 100.0772 
L 128.552727 99.544294 
L 128.290909 99.544294 
L 128.290909 99.142143 
L 128.029091 99.142143 
L 128.029091 99.379284 
L 127.767273 99.379284 
L 127.767273 99.629023 
L 127.505455 99.629023 
L 127.505455 100.368157 
L 127.243636 100.368157 
L 127.243636 99.892772 
L 126.981818 99.892772 
L 126.981818 99.379284 
L 126.72 99.379284 
L 126.72 99.629023 
L 126.458182 99.629023 
L 126.458182 98.843483 
L 126.196364 98.843483 
L 126.196364 98.843483 
L 125.934545 98.843483 
L 125.934545 98.233698 
L 125.672727 98.233698 
L 125.672727 98.631313 
L 125.410909 98.631313 
L 125.410909 97.750987 
L 125.149091 97.750987 
L 125.149091 97.693989 
L 124.887273 97.693989 
L 124.887273 97.637673 
L 124.625455 97.637673 
L 124.625455 97.059007 
L 124.363636 97.059007 
L 124.363636 97.867099 
L 124.101818 97.867099 
L 124.101818 97.365788 
L 123.84 97.365788 
L 123.84 97.986152 
L 123.578182 97.986152 
L 123.578182 97.582024 
L 123.316364 97.582024 
L 123.316364 97.261288 
L 123.054545 97.261288 
L 123.054545 96.633383 
L 122.792727 96.633383 
L 122.792727 96.678816 
L 122.530909 96.678816 
L 122.530909 96.160607 
L 122.269091 96.160607 
L 122.269091 96.499659 
L 122.007273 96.499659 
L 122.007273 96.201675 
L 121.745455 96.201675 
L 121.745455 96.160607 
L 121.483636 96.160607 
L 121.483636 96.86507 
L 121.221818 96.86507 
L 121.221818 95.960479 
L 120.96 95.960479 
L 120.96 96.455916 
L 120.698182 96.455916 
L 120.698182 96.201675 
L 120.436364 96.201675 
L 120.436364 95.960479 
L 120.174545 95.960479 
L 120.174545 95.620405 
L 119.912727 95.620405 
L 119.912727 95.070605 
L 119.650909 95.070605 
L 119.650909 94.434599 
L 119.389091 94.434599 
L 119.389091 94.818071 
L 119.127273 94.818071 
L 119.127273 95.006189 
L 118.865455 95.006189 
L 118.865455 94.696715 
L 118.603636 94.696715 
L 118.603636 94.91119 
L 118.341818 94.91119 
L 118.341818 94.520358 
L 118.08 94.520358 
L 118.08 94.406357 
L 117.818182 94.406357 
L 117.818182 93.89967 
L 117.556364 93.89967 
L 117.556364 93.92502 
L 117.294545 93.92502 
L 117.294545 93.35144 
L 117.032727 93.35144 
L 117.032727 93.511631 
L 116.770909 93.511631 
L 116.770909 93.240269 
L 116.509091 93.240269 
L 116.509091 93.004569 
L 116.247273 93.004569 
L 116.247273 93.534968 
L 115.985455 93.534968 
L 115.985455 93.110243 
L 115.723636 93.110243 
L 115.723636 93.60568 
L 115.461818 93.60568 
L 115.461818 93.196526 
L 115.2 93.196526 
L 115.2 92.324704 
L 114.938182 92.324704 
L 114.938182 92.342824 
L 114.676364 92.342824 
L 114.676364 92.164685 
L 114.414545 92.164685 
L 114.414545 92.043886 
L 114.152727 92.043886 
L 114.152727 92.324704 
L 113.890909 92.324704 
L 113.890909 91.778897 
L 113.629091 91.778897 
L 113.629091 91.860113 
L 113.367273 91.860113 
L 113.367273 92.095277 
L 113.105455 92.095277 
L 113.105455 91.467372 
L 112.843636 91.467372 
L 112.843636 91.077095 
L 112.581818 91.077095 
L 112.581818 90.602511 
L 112.32 90.602511 
L 112.32 90.716742 
L 112.058182 90.716742 
L 112.058182 90.39403 
L 111.796364 90.39403 
L 111.796364 90.540227 
L 111.534545 90.540227 
L 111.534545 90.768416 
L 111.272727 90.768416 
L 111.272727 90.28729 
L 111.010909 90.28729 
L 111.010909 90.252241 
L 110.749091 90.252241 
L 110.749091 90.002904 
L 110.487273 90.002904 
L 110.487273 89.471181 
L 110.225455 89.471181 
L 110.225455 89.693219 
L 109.963636 89.693219 
L 109.963636 89.165853 
L 109.701818 89.165853 
L 109.701818 89.441699 
L 109.44 89.441699 
L 109.44 89.57081 
L 109.178182 89.57081 
L 109.178182 89.363973 
L 108.916364 89.363973 
L 108.916364 88.844508 
L 108.654545 88.844508 
L 108.654545 88.543725 
L 108.392727 88.543725 
L 108.392727 88.245813 
L 108.130909 88.245813 
L 108.130909 87.951362 
L 107.869091 87.951362 
L 107.869091 88.185429 
L 107.607273 88.185429 
L 107.607273 87.922907 
L 107.345455 87.922907 
L 107.345455 88.052336 
L 107.083636 88.052336 
L 107.083636 87.61411 
L 106.821818 87.61411 
L 106.821818 87.528552 
L 106.56 87.528552 
L 106.56 86.889247 
L 106.298182 86.889247 
L 106.298182 86.917798 
L 106.036364 86.917798 
L 106.036364 86.946523 
L 105.774545 86.946523 
L 105.774545 87.0279 
L 105.512727 87.0279 
L 105.512727 86.810215 
L 105.250909 86.810215 
L 105.250909 86.554207 
L 104.989091 86.554207 
L 104.989091 86.080555 
L 104.727273 86.080555 
L 104.727273 85.878829 
L 104.465455 85.878829 
L 104.465455 85.716354 
L 104.203636 85.716354 
L 104.203636 85.760926 
L 103.941818 85.760926 
L 103.941818 85.663419 
L 103.68 85.663419 
L 103.68 85.478485 
L 103.418182 85.478485 
L 103.418182 84.948592 
L 103.156364 84.948592 
L 103.156364 84.717014 
L 102.894545 84.717014 
L 102.894545 84.624669 
L 102.632727 84.624669 
L 102.632727 84.572207 
L 102.370909 84.572207 
L 102.370909 84.628188 
L 102.109091 84.628188 
L 102.109091 84.384704 
L 101.847273 84.384704 
L 101.847273 83.893279 
L 101.585455 83.893279 
L 101.585455 83.692899 
L 101.323636 83.692899 
L 101.323636 83.486885 
L 101.061818 83.486885 
L 101.061818 83.638404 
L 100.8 83.638404 
L 100.8 83.391223 
L 100.538182 83.391223 
L 100.538182 83.016919 
L 100.276364 83.016919 
L 100.276364 82.721567 
L 100.014545 82.721567 
L 100.014545 82.443674 
L 99.752727 82.443674 
L 99.752727 82.419407 
L 99.490909 82.419407 
L 99.490909 82.461402 
L 99.229091 82.461402 
L 99.229091 82.059469 
L 98.967273 82.059469 
L 98.967273 81.668525 
L 98.705455 81.668525 
L 98.705455 81.575664 
L 98.443636 81.575664 
L 98.443636 81.479194 
L 98.181818 81.479194 
L 98.181818 81.384663 
L 97.92 81.384663 
L 97.92 81.072142 
L 97.658182 81.072142 
L 97.658182 80.682304 
L 97.396364 80.682304 
L 97.396364 80.371891 
L 97.134545 80.371891 
L 97.134545 80.475527 
L 96.872727 80.475527 
L 96.872727 80.288637 
L 96.610909 80.288637 
L 96.610909 79.867493 
L 96.349091 79.867493 
L 96.349091 79.568971 
L 96.087273 79.568971 
L 96.087273 79.49278 
L 95.825455 79.49278 
L 95.825455 79.462177 
L 95.563636 79.462177 
L 95.563636 79.09121 
L 95.301818 79.09121 
L 95.301818 78.683321 
L 95.04 78.683321 
L 95.04 78.547126 
L 94.778182 78.547126 
L 94.778182 78.50004 
L 94.516364 78.50004 
L 94.516364 78.143851 
L 94.254545 78.143851 
L 94.254545 77.730046 
L 93.992727 77.730046 
L 93.992727 77.682396 
L 93.730909 77.682396 
L 93.730909 77.572795 
L 93.469091 77.572795 
L 93.469091 77.169794 
L 93.207273 77.169794 
L 93.207273 76.832704 
L 92.945455 76.832704 
L 92.945455 76.745653 
L 92.683636 76.745653 
L 92.683636 76.539548 
L 92.421818 76.539548 
L 92.421818 76.083471 
L 92.16 76.083471 
L 92.16 75.949844 
L 91.898182 75.949844 
L 91.898182 75.772027 
L 91.636364 75.772027 
L 91.636364 75.371534 
L 91.374545 75.371534 
L 91.374545 75.106337 
L 91.112727 75.106337 
L 91.112727 75.009312 
L 90.850909 75.009312 
L 90.850909 74.597353 
L 90.589091 74.597353 
L 90.589091 74.313798 
L 90.327273 74.313798 
L 90.327273 74.187921 
L 90.065455 74.187921 
L 90.065455 73.744401 
L 89.803636 73.744401 
L 89.803636 73.526598 
L 89.541818 73.526598 
L 89.541818 73.317803 
L 89.28 73.317803 
L 89.28 72.879598 
L 89.018182 72.879598 
L 89.018182 72.71917 
L 88.756364 72.71917 
L 88.756364 72.36199 
L 88.494545 72.36199 
L 88.494545 72.035595 
L 88.232727 72.035595 
L 88.232727 71.822387 
L 87.970909 71.822387 
L 87.970909 71.380895 
L 87.709091 71.380895 
L 87.709091 71.200523 
L 87.447273 71.200523 
L 87.447273 70.765893 
L 87.185455 70.765893 
L 87.185455 70.528685 
L 86.923636 70.528685 
L 86.923636 70.128652 
L 86.661818 70.128652 
L 86.661818 69.844212 
L 86.4 69.844212 
L 86.4 69.429119 
L 86.138182 69.429119 
L 86.138182 69.162597 
L 85.876364 69.162597 
L 85.876364 68.716854 
L 85.614545 68.716854 
L 85.614545 68.417599 
L 85.352727 68.417599 
L 85.352727 68.004321 
L 85.090909 68.004321 
L 85.090909 67.618017 
L 84.829091 67.618017 
L 84.829091 67.266927 
L 84.567273 67.266927 
L 84.567273 66.808482 
L 84.305455 66.808482 
L 84.305455 66.39618 
L 84.043636 66.39618 
L 84.043636 66.001759 
L 83.781818 66.001759 
L 83.781818 65.541424 
L 83.52 65.541424 
L 83.52 65.081979 
L 83.258182 65.081979 
L 83.258182 64.606375 
L 82.996364 64.606375 
L 82.996364 64.116141 
L 82.734545 64.116141 
L 82.734545 63.605361 
L 82.472727 63.605361 
L 82.472727 63.079741 
L 82.210909 63.079741 
L 82.210909 62.518762 
L 81.949091 62.518762 
L 81.949091 61.922208 
L 81.687273 61.922208 
L 81.687273 61.306636 
L 81.425455 61.306636 
L 81.425455 60.646779 
L 81.163636 60.646779 
L 81.163636 59.940392 
L 80.901818 59.940392 
L 80.901818 59.171055 
L 80.64 59.171055 
L 80.64 58.334718 
L 80.378182 58.334718 
L 80.378182 57.400971 
L 80.116364 57.400971 
L 80.116364 56.350318 
L 79.854545 56.350318 
L 79.854545 55.112156 
L 79.592727 55.112156 
L 79.592727 53.59899 
L 79.330909 53.59899 
L 79.330909 51.59654 
L 79.069091 51.59654 
L 79.069091 48.535646 
L 78.807273 48.535646 
L 78.807273 39.927273 
L 78.545455 39.927273 
z
" clip-path="url(#p7f77e4ae88)" style="fill: #1f77b4; stroke: #1f77b4"/>
   </g>
   <g id="matplotlib.axis_1">
    <g id="xtick_1">
     <g id="line2d_1">
      <defs>
       <path id="mbd4029faac" d="M 0 0 
L 0 3.5 
" style="stroke: #000000; stroke-width: 0.8"/>
      </defs>
      <g>
       <use xlink:href="#mbd4029faac" x="78.545365" y="122.4" style="stroke: #000000; stroke-width: 0.8"/>
      </g>
     </g>
     <g id="text_1">
      <!-- 0 -->
      <g transform="translate(75.364115 136.998438) scale(0.1 -0.1)">
       <defs>
        <path id="DejaVuSans-30" d="M 2034 4250 
Q 1547 4250 1301 3770 
Q 1056 3291 1056 2328 
Q 1056 1369 1301 889 
Q 1547 409 2034 409 
Q 2525 409 2770 889 
Q 3016 1369 3016 2328 
Q 3016 3291 2770 3770 
Q 2525 4250 2034 4250 
z
M 2034 4750 
Q 2819 4750 3233 4129 
Q 3647 3509 3647 2328 
Q 3647 1150 3233 529 
Q 2819 -91 2034 -91 
Q 1250 -91 836 529 
Q 422 1150 422 2328 
Q 422 3509 836 4129 
Q 1250 4750 2034 4750 
z
" transform="scale(0.015625)"/>
       </defs>
       <use xlink:href="#DejaVuSans-30"/>
      </g>
     </g>
    </g>
    <g id="xtick_2">
     <g id="line2d_2">
      <g>
       <use xlink:href="#mbd4029faac" x="122.358601" y="122.4" style="stroke: #000000; stroke-width: 0.8"/>
      </g>
     </g>
     <g id="text_2">
      <!-- 2 -->
      <g transform="translate(119.177351 136.998438) scale(0.1 -0.1)">
       <defs>
        <path id="DejaVuSans-32" d="M 1228 531 
L 3431 531 
L 3431 0 
L 469 0 
L 469 531 
Q 828 903 1448 1529 
Q 2069 2156 2228 2338 
Q 2531 2678 2651 2914 
Q 2772 3150 2772 3378 
Q 2772 3750 2511 3984 
Q 2250 4219 1831 4219 
Q 1534 4219 1204 4116 
Q 875 4013 500 3803 
L 500 4441 
Q 881 4594 1212 4672 
Q 1544 4750 1819 4750 
Q 2544 4750 2975 4387 
Q 3406 4025 3406 3419 
Q 3406 3131 3298 2873 
Q 3191 2616 2906 2266 
Q 2828 2175 2409 1742 
Q 1991 1309 1228 531 
z
" transform="scale(0.015625)"/>
       </defs>
       <use xlink:href="#DejaVuSans-32"/>
      </g>
     </g>
    </g>
    <g id="xtick_3">
     <g id="line2d_3">
      <g>
       <use xlink:href="#mbd4029faac" x="166.171838" y="122.4" style="stroke: #000000; stroke-width: 0.8"/>
      </g>
     </g>
     <g id="text_3">
      <!-- 4 -->
      <g transform="translate(162.990588 136.998438) scale(0.1 -0.1)">
       <defs>
        <path id="DejaVuSans-34" d="M 2419 4116 
L 825 1625 
L 2419 1625 
L 2419 4116 
z
M 2253 4666 
L 3047 4666 
L 3047 1625 
L 3713 1625 
L 3713 1100 
L 3047 1100 
L 3047 0 
L 2419 0 
L 2419 1100 
L 313 1100 
L 313 1709 
L 2253 4666 
z
" transform="scale(0.015625)"/>
       </defs>
       <use xlink:href="#DejaVuSans-34"/>
      </g>
     </g>
    </g>
    <g id="xtick_4">
     <g id="line2d_4">
      <g>
       <use xlink:href="#mbd4029faac" x="209.985074" y="122.4" style="stroke: #000000; stroke-width: 0.8"/>
      </g>
     </g>
     <g id="text_4">
      <!-- 6 -->
      <g transform="translate(206.803824 136.998438) scale(0.1 -0.1)">
       <defs>
        <path id="DejaVuSans-36" d="M 2113 2584 
Q 1688 2584 1439 2293 
Q 1191 2003 1191 1497 
Q 1191 994 1439 701 
Q 1688 409 2113 409 
Q 2538 409 2786 701 
Q 3034 994 3034 1497 
Q 3034 2003 2786 2293 
Q 2538 2584 2113 2584 
z
M 3366 4563 
L 3366 3988 
Q 3128 4100 2886 4159 
Q 2644 4219 2406 4219 
Q 1781 4219 1451 3797 
Q 1122 3375 1075 2522 
Q 1259 2794 1537 2939 
Q 1816 3084 2150 3084 
Q 2853 3084 3261 2657 
Q 3669 2231 3669 1497 
Q 3669 778 3244 343 
Q 2819 -91 2113 -91 
Q 1303 -91 875 529 
Q 447 1150 447 2328 
Q 447 3434 972 4092 
Q 1497 4750 2381 4750 
Q 2619 4750 2861 4703 
Q 3103 4656 3366 4563 
z
" transform="scale(0.015625)"/>
       </defs>
       <use xlink:href="#DejaVuSans-36"/>
      </g>
     </g>
    </g>
    <g id="text_5">
     <!-- Copy number in  -->
     <g transform="translate(102.476562 150.676563) scale(0.1 -0.1)">
      <defs>
       <path id="DejaVuSans-43" d="M 4122 4306 
L 4122 3641 
Q 3803 3938 3442 4084 
Q 3081 4231 2675 4231 
Q 1875 4231 1450 3742 
Q 1025 3253 1025 2328 
Q 1025 1406 1450 917 
Q 1875 428 2675 428 
Q 3081 428 3442 575 
Q 3803 722 4122 1019 
L 4122 359 
Q 3791 134 3420 21 
Q 3050 -91 2638 -91 
Q 1578 -91 968 557 
Q 359 1206 359 2328 
Q 359 3453 968 4101 
Q 1578 4750 2638 4750 
Q 3056 4750 3426 4639 
Q 3797 4528 4122 4306 
z
" transform="scale(0.015625)"/>
       <path id="DejaVuSans-6f" d="M 1959 3097 
Q 1497 3097 1228 2736 
Q 959 2375 959 1747 
Q 959 1119 1226 758 
Q 1494 397 1959 397 
Q 2419 397 2687 759 
Q 2956 1122 2956 1747 
Q 2956 2369 2687 2733 
Q 2419 3097 1959 3097 
z
M 1959 3584 
Q 2709 3584 3137 3096 
Q 3566 2609 3566 1747 
Q 3566 888 3137 398 
Q 2709 -91 1959 -91 
Q 1206 -91 779 398 
Q 353 888 353 1747 
Q 353 2609 779 3096 
Q 1206 3584 1959 3584 
z
" transform="scale(0.015625)"/>
       <path id="DejaVuSans-70" d="M 1159 525 
L 1159 -1331 
L 581 -1331 
L 581 3500 
L 1159 3500 
L 1159 2969 
Q 1341 3281 1617 3432 
Q 1894 3584 2278 3584 
Q 2916 3584 3314 3078 
Q 3713 2572 3713 1747 
Q 3713 922 3314 415 
Q 2916 -91 2278 -91 
Q 1894 -91 1617 61 
Q 1341 213 1159 525 
z
M 3116 1747 
Q 3116 2381 2855 2742 
Q 2594 3103 2138 3103 
Q 1681 3103 1420 2742 
Q 1159 2381 1159 1747 
Q 1159 1113 1420 752 
Q 1681 391 2138 391 
Q 2594 391 2855 752 
Q 3116 1113 3116 1747 
z
" transform="scale(0.015625)"/>
       <path id="DejaVuSans-79" d="M 2059 -325 
Q 1816 -950 1584 -1140 
Q 1353 -1331 966 -1331 
L 506 -1331 
L 506 -850 
L 844 -850 
Q 1081 -850 1212 -737 
Q 1344 -625 1503 -206 
L 1606 56 
L 191 3500 
L 800 3500 
L 1894 763 
L 2988 3500 
L 3597 3500 
L 2059 -325 
z
" transform="scale(0.015625)"/>
       <path id="DejaVuSans-20" transform="scale(0.015625)"/>
       <path id="DejaVuSans-6e" d="M 3513 2113 
L 3513 0 
L 2938 0 
L 2938 2094 
Q 2938 2591 2744 2837 
Q 2550 3084 2163 3084 
Q 1697 3084 1428 2787 
Q 1159 2491 1159 1978 
L 1159 0 
L 581 0 
L 581 3500 
L 1159 3500 
L 1159 2956 
Q 1366 3272 1645 3428 
Q 1925 3584 2291 3584 
Q 2894 3584 3203 3211 
Q 3513 2838 3513 2113 
z
" transform="scale(0.015625)"/>
       <path id="DejaVuSans-75" d="M 544 1381 
L 544 3500 
L 1119 3500 
L 1119 1403 
Q 1119 906 1312 657 
Q 1506 409 1894 409 
Q 2359 409 2629 706 
Q 2900 1003 2900 1516 
L 2900 3500 
L 3475 3500 
L 3475 0 
L 2900 0 
L 2900 538 
Q 2691 219 2414 64 
Q 2138 -91 1772 -91 
Q 1169 -91 856 284 
Q 544 659 544 1381 
z
M 1991 3584 
L 1991 3584 
z
" transform="scale(0.015625)"/>
       <path id="DejaVuSans-6d" d="M 3328 2828 
Q 3544 3216 3844 3400 
Q 4144 3584 4550 3584 
Q 5097 3584 5394 3201 
Q 5691 2819 5691 2113 
L 5691 0 
L 5113 0 
L 5113 2094 
Q 5113 2597 4934 2840 
Q 4756 3084 4391 3084 
Q 3944 3084 3684 2787 
Q 3425 2491 3425 1978 
L 3425 0 
L 2847 0 
L 2847 2094 
Q 2847 2600 2669 2842 
Q 2491 3084 2119 3084 
Q 1678 3084 1418 2786 
Q 1159 2488 1159 1978 
L 1159 0 
L 581 0 
L 581 3500 
L 1159 3500 
L 1159 2956 
Q 1356 3278 1631 3431 
Q 1906 3584 2284 3584 
Q 2666 3584 2933 3390 
Q 3200 3197 3328 2828 
z
" transform="scale(0.015625)"/>
       <path id="DejaVuSans-62" d="M 3116 1747 
Q 3116 2381 2855 2742 
Q 2594 3103 2138 3103 
Q 1681 3103 1420 2742 
Q 1159 2381 1159 1747 
Q 1159 1113 1420 752 
Q 1681 391 2138 391 
Q 2594 391 2855 752 
Q 3116 1113 3116 1747 
z
M 1159 2969 
Q 1341 3281 1617 3432 
Q 1894 3584 2278 3584 
Q 2916 3584 3314 3078 
Q 3713 2572 3713 1747 
Q 3713 922 3314 415 
Q 2916 -91 2278 -91 
Q 1894 -91 1617 61 
Q 1341 213 1159 525 
L 1159 0 
L 581 0 
L 581 4863 
L 1159 4863 
L 1159 2969 
z
" transform="scale(0.015625)"/>
       <path id="DejaVuSans-65" d="M 3597 1894 
L 3597 1613 
L 953 1613 
Q 991 1019 1311 708 
Q 1631 397 2203 397 
Q 2534 397 2845 478 
Q 3156 559 3463 722 
L 3463 178 
Q 3153 47 2828 -22 
Q 2503 -91 2169 -91 
Q 1331 -91 842 396 
Q 353 884 353 1716 
Q 353 2575 817 3079 
Q 1281 3584 2069 3584 
Q 2775 3584 3186 3129 
Q 3597 2675 3597 1894 
z
M 3022 2063 
Q 3016 2534 2758 2815 
Q 2500 3097 2075 3097 
Q 1594 3097 1305 2825 
Q 1016 2553 972 2059 
L 3022 2063 
z
" transform="scale(0.015625)"/>
       <path id="DejaVuSans-72" d="M 2631 2963 
Q 2534 3019 2420 3045 
Q 2306 3072 2169 3072 
Q 1681 3072 1420 2755 
Q 1159 2438 1159 1844 
L 1159 0 
L 581 0 
L 581 3500 
L 1159 3500 
L 1159 2956 
Q 1341 3275 1631 3429 
Q 1922 3584 2338 3584 
Q 2397 3584 2469 3576 
Q 2541 3569 2628 3553 
L 2631 2963 
z
" transform="scale(0.015625)"/>
       <path id="DejaVuSans-69" d="M 603 3500 
L 1178 3500 
L 1178 0 
L 603 0 
L 603 3500 
z
M 603 4863 
L 1178 4863 
L 1178 4134 
L 603 4134 
L 603 4863 
z
" transform="scale(0.015625)"/>
      </defs>
      <use xlink:href="#DejaVuSans-43"/>
      <use xlink:href="#DejaVuSans-6f" x="69.824219"/>
      <use xlink:href="#DejaVuSans-70" x="131.005859"/>
      <use xlink:href="#DejaVuSans-79" x="194.482422"/>
      <use xlink:href="#DejaVuSans-20" x="253.662109"/>
      <use xlink:href="#DejaVuSans-6e" x="285.449219"/>
      <use xlink:href="#DejaVuSans-75" x="348.828125"/>
      <use xlink:href="#DejaVuSans-6d" x="412.207031"/>
      <use xlink:href="#DejaVuSans-62" x="509.619141"/>
      <use xlink:href="#DejaVuSans-65" x="573.095703"/>
      <use xlink:href="#DejaVuSans-72" x="634.619141"/>
      <use xlink:href="#DejaVuSans-20" x="675.732422"/>
      <use xlink:href="#DejaVuSans-69" x="707.519531"/>
      <use xlink:href="#DejaVuSans-6e" x="735.302734"/>
      <use xlink:href="#DejaVuSans-20" x="798.681641"/>
     </g>
     <!-- the initial library -->
     <g transform="translate(102.780469 161.874375) scale(0.1 -0.1)">
      <defs>
       <path id="DejaVuSans-74" d="M 1172 4494 
L 1172 3500 
L 2356 3500 
L 2356 3053 
L 1172 3053 
L 1172 1153 
Q 1172 725 1289 603 
Q 1406 481 1766 481 
L 2356 481 
L 2356 0 
L 1766 0 
Q 1100 0 847 248 
Q 594 497 594 1153 
L 594 3053 
L 172 3053 
L 172 3500 
L 594 3500 
L 594 4494 
L 1172 4494 
z
" transform="scale(0.015625)"/>
       <path id="DejaVuSans-68" d="M 3513 2113 
L 3513 0 
L 2938 0 
L 2938 2094 
Q 2938 2591 2744 2837 
Q 2550 3084 2163 3084 
Q 1697 3084 1428 2787 
Q 1159 2491 1159 1978 
L 1159 0 
L 581 0 
L 581 4863 
L 1159 4863 
L 1159 2956 
Q 1366 3272 1645 3428 
Q 1925 3584 2291 3584 
Q 2894 3584 3203 3211 
Q 3513 2838 3513 2113 
z
" transform="scale(0.015625)"/>
       <path id="DejaVuSans-61" d="M 2194 1759 
Q 1497 1759 1228 1600 
Q 959 1441 959 1056 
Q 959 750 1161 570 
Q 1363 391 1709 391 
Q 2188 391 2477 730 
Q 2766 1069 2766 1631 
L 2766 1759 
L 2194 1759 
z
M 3341 1997 
L 3341 0 
L 2766 0 
L 2766 531 
Q 2569 213 2275 61 
Q 1981 -91 1556 -91 
Q 1019 -91 701 211 
Q 384 513 384 1019 
Q 384 1609 779 1909 
Q 1175 2209 1959 2209 
L 2766 2209 
L 2766 2266 
Q 2766 2663 2505 2880 
Q 2244 3097 1772 3097 
Q 1472 3097 1187 3025 
Q 903 2953 641 2809 
L 641 3341 
Q 956 3463 1253 3523 
Q 1550 3584 1831 3584 
Q 2591 3584 2966 3190 
Q 3341 2797 3341 1997 
z
" transform="scale(0.015625)"/>
       <path id="DejaVuSans-6c" d="M 603 4863 
L 1178 4863 
L 1178 0 
L 603 0 
L 603 4863 
z
" transform="scale(0.015625)"/>
      </defs>
      <use xlink:href="#DejaVuSans-74"/>
      <use xlink:href="#DejaVuSans-68" x="39.208984"/>
      <use xlink:href="#DejaVuSans-65" x="102.587891"/>
      <use xlink:href="#DejaVuSans-20" x="164.111328"/>
      <use xlink:href="#DejaVuSans-69" x="195.898438"/>
      <use xlink:href="#DejaVuSans-6e" x="223.681641"/>
      <use xlink:href="#DejaVuSans-69" x="287.060547"/>
      <use xlink:href="#DejaVuSans-74" x="314.84375"/>
      <use xlink:href="#DejaVuSans-69" x="354.052734"/>
      <use xlink:href="#DejaVuSans-61" x="381.835938"/>
      <use xlink:href="#DejaVuSans-6c" x="443.115234"/>
      <use xlink:href="#DejaVuSans-20" x="470.898438"/>
      <use xlink:href="#DejaVuSans-6c" x="502.685547"/>
      <use xlink:href="#DejaVuSans-69" x="530.46875"/>
      <use xlink:href="#DejaVuSans-62" x="558.251953"/>
      <use xlink:href="#DejaVuSans-72" x="621.728516"/>
      <use xlink:href="#DejaVuSans-61" x="662.841797"/>
      <use xlink:href="#DejaVuSans-72" x="724.121094"/>
      <use xlink:href="#DejaVuSans-79" x="765.234375"/>
     </g>
    </g>
    <g id="text_6">
     <!-- 1e7 -->
     <g transform="translate(197.121875 149.676563) scale(0.1 -0.1)">
      <defs>
       <path id="DejaVuSans-31" d="M 794 531 
L 1825 531 
L 1825 4091 
L 703 3866 
L 703 4441 
L 1819 4666 
L 2450 4666 
L 2450 531 
L 3481 531 
L 3481 0 
L 794 0 
L 794 531 
z
" transform="scale(0.015625)"/>
       <path id="DejaVuSans-37" d="M 525 4666 
L 3525 4666 
L 3525 4397 
L 1831 0 
L 1172 0 
L 2766 4134 
L 525 4134 
L 525 4666 
z
" transform="scale(0.015625)"/>
      </defs>
      <use xlink:href="#DejaVuSans-31"/>
      <use xlink:href="#DejaVuSans-65" x="63.623047"/>
      <use xlink:href="#DejaVuSans-37" x="125.146484"/>
     </g>
    </g>
   </g>
   <g id="matplotlib.axis_2">
    <g id="ytick_1">
     <g id="line2d_5">
      <defs>
       <path id="m7045bc6753" d="M 0 0 
L -3.5 0 
" style="stroke: #000000; stroke-width: 0.8"/>
      </defs>
      <g>
       <use xlink:href="#m7045bc6753" x="72" y="106.806959" style="stroke: #000000; stroke-width: 0.8"/>
      </g>
     </g>
     <g id="text_7">
      <!-- $\mathdefault{10^{-4}}$ -->
      <g transform="translate(41.5 110.606177) scale(0.1 -0.1)">
       <defs>
        <path id="DejaVuSans-2212" d="M 678 2272 
L 4684 2272 
L 4684 1741 
L 678 1741 
L 678 2272 
z
" transform="scale(0.015625)"/>
       </defs>
       <use xlink:href="#DejaVuSans-31" transform="translate(0 0.684375)"/>
       <use xlink:href="#DejaVuSans-30" transform="translate(63.623047 0.684375)"/>
       <use xlink:href="#DejaVuSans-2212" transform="translate(128.203125 38.965625) scale(0.7)"/>
       <use xlink:href="#DejaVuSans-34" transform="translate(186.855469 38.965625) scale(0.7)"/>
      </g>
     </g>
    </g>
    <g id="ytick_2">
     <g id="line2d_6">
      <g>
       <use xlink:href="#m7045bc6753" x="72" y="85.152042" style="stroke: #000000; stroke-width: 0.8"/>
      </g>
     </g>
     <g id="text_8">
      <!-- $\mathdefault{10^{-2}}$ -->
      <g transform="translate(41.5 88.95126) scale(0.1 -0.1)">
       <use xlink:href="#DejaVuSans-31" transform="translate(0 0.765625)"/>
       <use xlink:href="#DejaVuSans-30" transform="translate(63.623047 0.765625)"/>
       <use xlink:href="#DejaVuSans-2212" transform="translate(128.203125 39.046875) scale(0.7)"/>
       <use xlink:href="#DejaVuSans-32" transform="translate(186.855469 39.046875) scale(0.7)"/>
      </g>
     </g>
    </g>
    <g id="ytick_3">
     <g id="line2d_7">
      <g>
       <use xlink:href="#m7045bc6753" x="72" y="63.497125" style="stroke: #000000; stroke-width: 0.8"/>
      </g>
     </g>
     <g id="text_9">
      <!-- $\mathdefault{10^{0}}$ -->
      <g transform="translate(47.4 67.296343) scale(0.1 -0.1)">
       <use xlink:href="#DejaVuSans-31" transform="translate(0 0.765625)"/>
       <use xlink:href="#DejaVuSans-30" transform="translate(63.623047 0.765625)"/>
       <use xlink:href="#DejaVuSans-30" transform="translate(128.203125 39.046875) scale(0.7)"/>
      </g>
     </g>
    </g>
    <g id="ytick_4">
     <g id="line2d_8">
      <g>
       <use xlink:href="#m7045bc6753" x="72" y="41.842208" style="stroke: #000000; stroke-width: 0.8"/>
      </g>
     </g>
     <g id="text_10">
      <!-- $\mathdefault{10^{2}}$ -->
      <g transform="translate(47.4 45.641426) scale(0.1 -0.1)">
       <use xlink:href="#DejaVuSans-31" transform="translate(0 0.765625)"/>
       <use xlink:href="#DejaVuSans-30" transform="translate(63.623047 0.765625)"/>
       <use xlink:href="#DejaVuSans-32" transform="translate(128.203125 39.046875) scale(0.7)"/>
      </g>
     </g>
    </g>
    <g id="text_11">
     <!-- Frequency -->
     <g transform="translate(35.420312 105.029688) rotate(-90) scale(0.1 -0.1)">
      <defs>
       <path id="DejaVuSans-46" d="M 628 4666 
L 3309 4666 
L 3309 4134 
L 1259 4134 
L 1259 2759 
L 3109 2759 
L 3109 2228 
L 1259 2228 
L 1259 0 
L 628 0 
L 628 4666 
z
" transform="scale(0.015625)"/>
       <path id="DejaVuSans-71" d="M 947 1747 
Q 947 1113 1208 752 
Q 1469 391 1925 391 
Q 2381 391 2643 752 
Q 2906 1113 2906 1747 
Q 2906 2381 2643 2742 
Q 2381 3103 1925 3103 
Q 1469 3103 1208 2742 
Q 947 2381 947 1747 
z
M 2906 525 
Q 2725 213 2448 61 
Q 2172 -91 1784 -91 
Q 1150 -91 751 415 
Q 353 922 353 1747 
Q 353 2572 751 3078 
Q 1150 3584 1784 3584 
Q 2172 3584 2448 3432 
Q 2725 3281 2906 2969 
L 2906 3500 
L 3481 3500 
L 3481 -1331 
L 2906 -1331 
L 2906 525 
z
" transform="scale(0.015625)"/>
       <path id="DejaVuSans-63" d="M 3122 3366 
L 3122 2828 
Q 2878 2963 2633 3030 
Q 2388 3097 2138 3097 
Q 1578 3097 1268 2742 
Q 959 2388 959 1747 
Q 959 1106 1268 751 
Q 1578 397 2138 397 
Q 2388 397 2633 464 
Q 2878 531 3122 666 
L 3122 134 
Q 2881 22 2623 -34 
Q 2366 -91 2075 -91 
Q 1284 -91 818 406 
Q 353 903 353 1747 
Q 353 2603 823 3093 
Q 1294 3584 2113 3584 
Q 2378 3584 2631 3529 
Q 2884 3475 3122 3366 
z
" transform="scale(0.015625)"/>
      </defs>
      <use xlink:href="#DejaVuSans-46"/>
      <use xlink:href="#DejaVuSans-72" x="50.269531"/>
      <use xlink:href="#DejaVuSans-65" x="89.132812"/>
      <use xlink:href="#DejaVuSans-71" x="150.65625"/>
      <use xlink:href="#DejaVuSans-75" x="214.132812"/>
      <use xlink:href="#DejaVuSans-65" x="277.511719"/>
      <use xlink:href="#DejaVuSans-6e" x="339.035156"/>
      <use xlink:href="#DejaVuSans-63" x="402.414062"/>
      <use xlink:href="#DejaVuSans-79" x="457.394531"/>
     </g>
    </g>
   </g>
   <g id="line2d_9">
    <path d="M 89.728059 122.4 
L 89.728059 36 
" clip-path="url(#p7f77e4ae88)" style="fill: none; stroke: #ff0000; stroke-opacity: 0.3; stroke-width: 1.5; stroke-linecap: square"/>
   </g>
   <g id="patch_3">
    <path d="M 72 122.4 
L 72 36 
" style="fill: none; stroke: #000000; stroke-width: 0.8; stroke-linejoin: miter; stroke-linecap: square"/>
   </g>
   <g id="patch_4">
    <path d="M 72 122.4 
L 216 122.4 
" style="fill: none; stroke: #000000; stroke-width: 0.8; stroke-linejoin: miter; stroke-linecap: square"/>
   </g>
  </g>
 </g>
 <defs>
  <clipPath id="p7f77e4ae88">
   <rect x="72" y="36" width="144" height="86.4"/>
  </clipPath>
 </defs>
</svg>
