<?xml version="1.0" encoding="utf-8" standalone="no"?>
<!DOCTYPE svg PUBLIC "-//W3C//DTD SVG 1.1//EN"
  "http://www.w3.org/Graphics/SVG/1.1/DTD/svg11.dtd">
<svg xmlns:xlink="http://www.w3.org/1999/xlink" width="158.4pt" height="158.4pt" viewBox="0 0 158.4 158.4" xmlns="http://www.w3.org/2000/svg" version="1.1">
 <metadata>
  <rdf:RDF xmlns:dc="http://purl.org/dc/elements/1.1/" xmlns:cc="http://creativecommons.org/ns#" xmlns:rdf="http://www.w3.org/1999/02/22-rdf-syntax-ns#">
   <cc:Work>
    <dc:type rdf:resource="http://purl.org/dc/dcmitype/StillImage"/>
    <dc:date>2025-09-04T13:26:45.994692</dc:date>
    <dc:format>image/svg+xml</dc:format>
    <dc:creator>
     <cc:Agent>
      <dc:title>Matplotlib v3.8.4, https://matplotlib.org/</dc:title>
     </cc:Agent>
    </dc:creator>
   </cc:Work>
  </rdf:RDF>
 </metadata>
 <defs>
  <style type="text/css">*{stroke-linejoin: round; stroke-linecap: butt}</style>
 </defs>
 <g id="figure_1">
  <g id="patch_1">
   <path d="M 0 158.4 
L 158.4 158.4 
L 158.4 0 
L 0 0 
z
" style="fill: #ffffff"/>
  </g>
  <g id="axes_1">
   <g id="patch_2">
    <path d="M 36 122.4 
L 122.4 122.4 
L 122.4 36 
L 36 36 
z
" style="fill: #ffffff"/>
   </g>
   <g id="PathCollection_1">
    <defs>
     <path id="m330dd35ea9" d="M 0 1.936492 
C 0.513564 1.936492 1.006162 1.732451 1.369306 1.369306 
C 1.732451 1.006162 1.936492 0.513564 1.936492 0 
C 1.936492 -0.513564 1.732451 -1.006162 1.369306 -1.369306 
C 1.006162 -1.732451 0.513564 -1.936492 0 -1.936492 
C -0.513564 -1.936492 -1.006162 -1.732451 -1.369306 -1.369306 
C -1.732451 -1.006162 -1.936492 -0.513564 -1.936492 0 
C -1.936492 0.513564 -1.732451 1.006162 -1.369306 1.369306 
C -1.006162 1.732451 -0.513564 1.936492 0 1.936492 
z
" style="stroke: #48494a"/>
    </defs>
    <g clip-path="url(#p20d561e8a7)">
     <use xlink:href="#m330dd35ea9" x="71.166095" y="98.911922" style="fill: #48494a; stroke: #48494a"/>
     <use xlink:href="#m330dd35ea9" x="88.809592" y="87.172209" style="fill: #48494a; stroke: #48494a"/>
     <use xlink:href="#m330dd35ea9" x="81.974137" y="83.743865" style="fill: #48494a; stroke: #48494a"/>
     <use xlink:href="#m330dd35ea9" x="98.624436" y="68.462716" style="fill: #48494a; stroke: #48494a"/>
     <use xlink:href="#m330dd35ea9" x="86.618158" y="85.842302" style="fill: #48494a; stroke: #48494a"/>
     <use xlink:href="#m330dd35ea9" x="102.995787" y="66.948134" style="fill: #48494a; stroke: #48494a"/>
     <use xlink:href="#m330dd35ea9" x="60.065159" y="98.911922" style="fill: #48494a; stroke: #48494a"/>
     <use xlink:href="#m330dd35ea9" x="95.672126" y="66.50592" style="fill: #48494a; stroke: #48494a"/>
     <use xlink:href="#m330dd35ea9" x="110.798629" y="49.301368" style="fill: #48494a; stroke: #48494a"/>
     <use xlink:href="#m330dd35ea9" x="85.818687" y="85.842302" style="fill: #48494a; stroke: #48494a"/>
     <use xlink:href="#m330dd35ea9" x="75.306327" y="98.911922" style="fill: #48494a; stroke: #48494a"/>
     <use xlink:href="#m330dd35ea9" x="91.090094" y="76.040707" style="fill: #48494a; stroke: #48494a"/>
     <use xlink:href="#m330dd35ea9" x="82.927764" y="98.911922" style="fill: #48494a; stroke: #48494a"/>
     <use xlink:href="#m330dd35ea9" x="100.632796" y="69.42072" style="fill: #48494a; stroke: #48494a"/>
     <use xlink:href="#m330dd35ea9" x="91.52666" y="71.308932" style="fill: #48494a; stroke: #48494a"/>
     <use xlink:href="#m330dd35ea9" x="107.845889" y="53.954895" style="fill: #48494a; stroke: #48494a"/>
     <use xlink:href="#m330dd35ea9" x="61.939945" y="93.855903" style="fill: #48494a; stroke: #48494a"/>
     <use xlink:href="#m330dd35ea9" x="86.433953" y="80.202429" style="fill: #48494a; stroke: #48494a"/>
     <use xlink:href="#m330dd35ea9" x="74.270618" y="85.842302" style="fill: #48494a; stroke: #48494a"/>
     <use xlink:href="#m330dd35ea9" x="93.281831" y="74.10259" style="fill: #48494a; stroke: #48494a"/>
     <use xlink:href="#m330dd35ea9" x="84.532477" y="85.842302" style="fill: #48494a; stroke: #48494a"/>
     <use xlink:href="#m330dd35ea9" x="103.957241" y="64.113148" style="fill: #48494a; stroke: #48494a"/>
     <use xlink:href="#m330dd35ea9" x="93.131374" y="68.807393" style="fill: #48494a; stroke: #48494a"/>
     <use xlink:href="#m330dd35ea9" x="109.864922" y="51.81435" style="fill: #48494a; stroke: #48494a"/>
     <use xlink:href="#m330dd35ea9" x="65.235982" y="98.911922" style="fill: #48494a; stroke: #48494a"/>
     <use xlink:href="#m330dd35ea9" x="93.016506" y="75.432497" style="fill: #48494a; stroke: #48494a"/>
     <use xlink:href="#m330dd35ea9" x="83.455695" y="82.884721" style="fill: #48494a; stroke: #48494a"/>
     <use xlink:href="#m330dd35ea9" x="99.252276" y="64.428968" style="fill: #48494a; stroke: #48494a"/>
     <use xlink:href="#m330dd35ea9" x="91.573628" y="82.884721" style="fill: #48494a; stroke: #48494a"/>
     <use xlink:href="#m330dd35ea9" x="109.357438" y="59.635835" style="fill: #48494a; stroke: #48494a"/>
     <use xlink:href="#m330dd35ea9" x="45.548825" y="98.911922" style="fill: #48494a; stroke: #48494a"/>
     <use xlink:href="#m330dd35ea9" x="98.142175" y="63.634663" style="fill: #48494a; stroke: #48494a"/>
     <use xlink:href="#m330dd35ea9" x="114.604839" y="46.494077" style="fill: #48494a; stroke: #48494a"/>
     <use xlink:href="#m330dd35ea9" x="82.674861" y="90.898321" style="fill: #48494a; stroke: #48494a"/>
     <use xlink:href="#m330dd35ea9" x="99.455766" y="66.592244" style="fill: #48494a; stroke: #48494a"/>
     <use xlink:href="#m330dd35ea9" x="92.386093" y="72.004153" style="fill: #48494a; stroke: #48494a"/>
     <use xlink:href="#m330dd35ea9" x="107.629593" y="54.835185" style="fill: #48494a; stroke: #48494a"/>
     <use xlink:href="#m330dd35ea9" x="45.548825" y="98.911922" style="fill: #48494a; stroke: #48494a"/>
     <use xlink:href="#m330dd35ea9" x="95.690123" y="66.170491" style="fill: #48494a; stroke: #48494a"/>
     <use xlink:href="#m330dd35ea9" x="110.960527" y="49.675943" style="fill: #48494a; stroke: #48494a"/>
     <use xlink:href="#m330dd35ea9" x="58.915208" y="98.911922" style="fill: #48494a; stroke: #48494a"/>
     <use xlink:href="#m330dd35ea9" x="99.821028" y="58.378788" style="fill: #48494a; stroke: #48494a"/>
     <use xlink:href="#m330dd35ea9" x="114.377843" y="42.379805" style="fill: #48494a; stroke: #48494a"/>
     <use xlink:href="#m330dd35ea9" x="71.632492" y="98.911922" style="fill: #48494a; stroke: #48494a"/>
     <use xlink:href="#m330dd35ea9" x="94.742622" y="71.648263" style="fill: #48494a; stroke: #48494a"/>
     <use xlink:href="#m330dd35ea9" x="84.162488" y="76.704282" style="fill: #48494a; stroke: #48494a"/>
     <use xlink:href="#m330dd35ea9" x="101.267593" y="62.07679" style="fill: #48494a; stroke: #48494a"/>
     <use xlink:href="#m330dd35ea9" x="92.620311" y="70.523843" style="fill: #48494a; stroke: #48494a"/>
     <use xlink:href="#m330dd35ea9" x="109.975659" y="51.56668" style="fill: #48494a; stroke: #48494a"/>
     <use xlink:href="#m330dd35ea9" x="57.555103" y="98.911922" style="fill: #48494a; stroke: #48494a"/>
     <use xlink:href="#m330dd35ea9" x="55.89047" y="93.855903" style="fill: #48494a; stroke: #48494a"/>
     <use xlink:href="#m330dd35ea9" x="97.422753" y="62.030181" style="fill: #48494a; stroke: #48494a"/>
     <use xlink:href="#m330dd35ea9" x="112.500646" y="44.943004" style="fill: #48494a; stroke: #48494a"/>
     <use xlink:href="#m330dd35ea9" x="69.256853" y="93.855903" style="fill: #48494a; stroke: #48494a"/>
     <use xlink:href="#m330dd35ea9" x="92.552183" y="76.704282" style="fill: #48494a; stroke: #48494a"/>
     <use xlink:href="#m330dd35ea9" x="81.802637" y="88.799884" style="fill: #48494a; stroke: #48494a"/>
     <use xlink:href="#m330dd35ea9" x="98.756686" y="63.990552" style="fill: #48494a; stroke: #48494a"/>
     <use xlink:href="#m330dd35ea9" x="89.940142" y="77.43432" style="fill: #48494a; stroke: #48494a"/>
     <use xlink:href="#m330dd35ea9" x="108.449775" y="56.567564" style="fill: #48494a; stroke: #48494a"/>
     <use xlink:href="#m330dd35ea9" x="96.168766" y="64.691854" style="fill: #48494a; stroke: #48494a"/>
     <use xlink:href="#m330dd35ea9" x="113.302753" y="46.384469" style="fill: #48494a; stroke: #48494a"/>
     <use xlink:href="#m330dd35ea9" x="74.270618" y="98.911922" style="fill: #48494a; stroke: #48494a"/>
     <use xlink:href="#m330dd35ea9" x="99.168172" y="68.133595" style="fill: #48494a; stroke: #48494a"/>
     <use xlink:href="#m330dd35ea9" x="89.054202" y="74.605844" style="fill: #48494a; stroke: #48494a"/>
     <use xlink:href="#m330dd35ea9" x="106.069869" y="57.138614" style="fill: #48494a; stroke: #48494a"/>
     <use xlink:href="#m330dd35ea9" x="55.89047" y="98.911922" style="fill: #48494a; stroke: #48494a"/>
     <use xlink:href="#m330dd35ea9" x="96.578755" y="69.815102" style="fill: #48494a; stroke: #48494a"/>
     <use xlink:href="#m330dd35ea9" x="114.222083" y="50.383987" style="fill: #48494a; stroke: #48494a"/>
     <use xlink:href="#m330dd35ea9" x="102.869835" y="57.706646" style="fill: #48494a; stroke: #48494a"/>
     <use xlink:href="#m330dd35ea9" x="118.472727" y="39.927273" style="fill: #48494a; stroke: #48494a"/>
    </g>
   </g>
   <g id="PathCollection_2">
    <defs>
     <path id="C0_0_eee9da83ef" d="M 0 1.936492 
C 0.513564 1.936492 1.006162 1.732451 1.369306 1.369306 
C 1.732451 1.006162 1.936492 0.513564 1.936492 -0 
C 1.936492 -0.513564 1.732451 -1.006162 1.369306 -1.369306 
C 1.006162 -1.732451 0.513564 -1.936492 0 -1.936492 
C -0.513564 -1.936492 -1.006162 -1.732451 -1.369306 -1.369306 
C -1.732451 -1.006162 -1.936492 -0.513564 -1.936492 0 
C -1.936492 0.513564 -1.732451 1.006162 -1.369306 1.369306 
C -1.006162 1.732451 -0.513564 1.936492 0 1.936492 
z
"/>
    </defs>
    <g clip-path="url(#p20d561e8a7)">
     <use xlink:href="#C0_0_eee9da83ef" x="45.548825" y="118.472727" style="fill: #1f77b4; fill-opacity: 0.3"/>
    </g>
    <g clip-path="url(#p20d561e8a7)">
     <use xlink:href="#C0_0_eee9da83ef" x="45.548825" y="118.472727" style="fill: #1f77b4; fill-opacity: 0.3"/>
    </g>
    <g clip-path="url(#p20d561e8a7)">
     <use xlink:href="#C0_0_eee9da83ef" x="53.744385" y="118.472727" style="fill: #1f77b4; fill-opacity: 0.3"/>
    </g>
    <g clip-path="url(#p20d561e8a7)">
     <use xlink:href="#C0_0_eee9da83ef" x="50.719648" y="118.472727" style="fill: #1f77b4; fill-opacity: 0.3"/>
    </g>
    <g clip-path="url(#p20d561e8a7)">
     <use xlink:href="#C0_0_eee9da83ef" x="64.683142" y="118.472727" style="fill: #1f77b4; fill-opacity: 0.3"/>
    </g>
    <g clip-path="url(#p20d561e8a7)">
     <use xlink:href="#C0_0_eee9da83ef" x="50.719648" y="118.472727" style="fill: #1f77b4; fill-opacity: 0.3"/>
    </g>
    <g clip-path="url(#p20d561e8a7)">
     <use xlink:href="#C0_0_eee9da83ef" x="55.89047" y="118.472727" style="fill: #1f77b4; fill-opacity: 0.3"/>
    </g>
    <g clip-path="url(#p20d561e8a7)">
     <use xlink:href="#C0_0_eee9da83ef" x="50.719648" y="118.472727" style="fill: #1f77b4; fill-opacity: 0.3"/>
    </g>
    <g clip-path="url(#p20d561e8a7)">
     <use xlink:href="#C0_0_eee9da83ef" x="50.719648" y="118.472727" style="fill: #1f77b4; fill-opacity: 0.3"/>
    </g>
    <g clip-path="url(#p20d561e8a7)">
     <use xlink:href="#C0_0_eee9da83ef" x="61.061293" y="118.472727" style="fill: #1f77b4; fill-opacity: 0.3"/>
    </g>
    <g clip-path="url(#p20d561e8a7)">
     <use xlink:href="#C0_0_eee9da83ef" x="45.548825" y="118.472727" style="fill: #1f77b4; fill-opacity: 0.3"/>
    </g>
    <g clip-path="url(#p20d561e8a7)">
     <use xlink:href="#C0_0_eee9da83ef" x="50.719648" y="118.472727" style="fill: #1f77b4; fill-opacity: 0.3"/>
    </g>
    <g clip-path="url(#p20d561e8a7)">
     <use xlink:href="#C0_0_eee9da83ef" x="53.744385" y="118.472727" style="fill: #1f77b4; fill-opacity: 0.3"/>
    </g>
    <g clip-path="url(#p20d561e8a7)">
     <use xlink:href="#C0_0_eee9da83ef" x="50.719648" y="118.472727" style="fill: #1f77b4; fill-opacity: 0.3"/>
    </g>
    <g clip-path="url(#p20d561e8a7)">
     <use xlink:href="#C0_0_eee9da83ef" x="53.744385" y="118.472727" style="fill: #1f77b4; fill-opacity: 0.3"/>
    </g>
    <g clip-path="url(#p20d561e8a7)">
     <use xlink:href="#C0_0_eee9da83ef" x="64.08603" y="118.472727" style="fill: #1f77b4; fill-opacity: 0.3"/>
    </g>
    <g clip-path="url(#p20d561e8a7)">
     <use xlink:href="#C0_0_eee9da83ef" x="45.548825" y="118.472727" style="fill: #1f77b4; fill-opacity: 0.3"/>
    </g>
    <g clip-path="url(#p20d561e8a7)">
     <use xlink:href="#C0_0_eee9da83ef" x="53.744385" y="118.472727" style="fill: #1f77b4; fill-opacity: 0.3"/>
    </g>
    <g clip-path="url(#p20d561e8a7)">
     <use xlink:href="#C0_0_eee9da83ef" x="50.719648" y="118.472727" style="fill: #1f77b4; fill-opacity: 0.3"/>
    </g>
    <g clip-path="url(#p20d561e8a7)">
     <use xlink:href="#C0_0_eee9da83ef" x="53.744385" y="118.472727" style="fill: #1f77b4; fill-opacity: 0.3"/>
    </g>
    <g clip-path="url(#p20d561e8a7)">
     <use xlink:href="#C0_0_eee9da83ef" x="55.89047" y="118.472727" style="fill: #1f77b4; fill-opacity: 0.3"/>
    </g>
    <g clip-path="url(#p20d561e8a7)">
     <use xlink:href="#C0_0_eee9da83ef" x="50.719648" y="118.472727" style="fill: #1f77b4; fill-opacity: 0.3"/>
    </g>
    <g clip-path="url(#p20d561e8a7)">
     <use xlink:href="#C0_0_eee9da83ef" x="55.89047" y="118.472727" style="fill: #1f77b4; fill-opacity: 0.3"/>
    </g>
    <g clip-path="url(#p20d561e8a7)">
     <use xlink:href="#C0_0_eee9da83ef" x="58.915208" y="118.472727" style="fill: #1f77b4; fill-opacity: 0.3"/>
    </g>
    <g clip-path="url(#p20d561e8a7)">
     <use xlink:href="#C0_0_eee9da83ef" x="63.436932" y="118.472727" style="fill: #1f77b4; fill-opacity: 0.3"/>
    </g>
   </g>
   <g id="PathCollection_3">
    <defs>
     <path id="C1_0_39ff4cb723" d="M 0 1.936492 
C 0.513564 1.936492 1.006162 1.732451 1.369306 1.369306 
C 1.732451 1.006162 1.936492 0.513564 1.936492 -0 
C 1.936492 -0.513564 1.732451 -1.006162 1.369306 -1.369306 
C 1.006162 -1.732451 0.513564 -1.936492 0 -1.936492 
C -0.513564 -1.936492 -1.006162 -1.732451 -1.369306 -1.369306 
C -1.732451 -1.006162 -1.936492 -0.513564 -1.936492 0 
C -1.936492 0.513564 -1.732451 1.006162 -1.369306 1.369306 
C -1.006162 1.732451 -0.513564 1.936492 0 1.936492 
z
"/>
    </defs>
    <g clip-path="url(#p20d561e8a7)">
     <use xlink:href="#C1_0_39ff4cb723" x="39.927273" y="98.911922" style="fill: #2ca02c; fill-opacity: 0.3"/>
    </g>
    <g clip-path="url(#p20d561e8a7)">
     <use xlink:href="#C1_0_39ff4cb723" x="39.927273" y="98.911922" style="fill: #2ca02c; fill-opacity: 0.3"/>
    </g>
    <g clip-path="url(#p20d561e8a7)">
     <use xlink:href="#C1_0_39ff4cb723" x="39.927273" y="98.911922" style="fill: #2ca02c; fill-opacity: 0.3"/>
    </g>
    <g clip-path="url(#p20d561e8a7)">
     <use xlink:href="#C1_0_39ff4cb723" x="39.927273" y="98.911922" style="fill: #2ca02c; fill-opacity: 0.3"/>
    </g>
    <g clip-path="url(#p20d561e8a7)">
     <use xlink:href="#C1_0_39ff4cb723" x="39.927273" y="98.911922" style="fill: #2ca02c; fill-opacity: 0.3"/>
    </g>
    <g clip-path="url(#p20d561e8a7)">
     <use xlink:href="#C1_0_39ff4cb723" x="39.927273" y="98.911922" style="fill: #2ca02c; fill-opacity: 0.3"/>
    </g>
   </g>
   <g id="matplotlib.axis_1">
    <g id="xtick_1">
     <g id="line2d_1">
      <defs>
       <path id="md29e604b6f" d="M 0 0 
L 0 3.5 
" style="stroke: #000000; stroke-width: 0.8"/>
      </defs>
      <g>
       <use xlink:href="#md29e604b6f" x="51.933551" y="122.4" style="stroke: #000000; stroke-width: 0.8"/>
      </g>
     </g>
     <g id="text_1">
      <!-- $\mathdefault{10^{-1}}$ -->
      <g transform="translate(40.053551 141.775) scale(0.12 -0.12)">
       <defs>
        <path id="ArialMT-31" d="M 2384 0 
L 1822 0 
L 1822 3584 
Q 1619 3391 1289 3197 
Q 959 3003 697 2906 
L 697 3450 
Q 1169 3672 1522 3987 
Q 1875 4303 2022 4600 
L 2384 4600 
L 2384 0 
z
" transform="scale(0.015625)"/>
        <path id="ArialMT-30" d="M 266 2259 
Q 266 3072 433 3567 
Q 600 4063 929 4331 
Q 1259 4600 1759 4600 
Q 2128 4600 2406 4451 
Q 2684 4303 2865 4023 
Q 3047 3744 3150 3342 
Q 3253 2941 3253 2259 
Q 3253 1453 3087 958 
Q 2922 463 2592 192 
Q 2263 -78 1759 -78 
Q 1097 -78 719 397 
Q 266 969 266 2259 
z
M 844 2259 
Q 844 1131 1108 757 
Q 1372 384 1759 384 
Q 2147 384 2411 759 
Q 2675 1134 2675 2259 
Q 2675 3391 2411 3762 
Q 2147 4134 1753 4134 
Q 1366 4134 1134 3806 
Q 844 3388 844 2259 
z
" transform="scale(0.015625)"/>
        <path id="ArialMT-2212" d="M 3381 1997 
L 356 1997 
L 356 2522 
L 3381 2522 
L 3381 1997 
z
" transform="scale(0.015625)"/>
       </defs>
       <use xlink:href="#ArialMT-31" transform="translate(0 0.99375)"/>
       <use xlink:href="#ArialMT-30" transform="translate(55.615234 0.99375)"/>
       <use xlink:href="#ArialMT-2212" transform="translate(112.972813 70.6875) scale(0.7)"/>
       <use xlink:href="#ArialMT-31" transform="translate(153.851719 70.6875) scale(0.7)"/>
      </g>
     </g>
    </g>
    <g id="xtick_2">
     <g id="line2d_2">
      <g>
       <use xlink:href="#md29e604b6f" x="69.110651" y="122.4" style="stroke: #000000; stroke-width: 0.8"/>
      </g>
     </g>
     <g id="text_2">
      <!-- $\mathdefault{10^{0}}$ -->
      <g transform="translate(59.690651 141.775) scale(0.12 -0.12)">
       <use xlink:href="#ArialMT-31" transform="translate(0 0.99375)"/>
       <use xlink:href="#ArialMT-30" transform="translate(55.615234 0.99375)"/>
       <use xlink:href="#ArialMT-30" transform="translate(112.972813 70.6875) scale(0.7)"/>
      </g>
     </g>
    </g>
    <g id="xtick_3">
     <g id="line2d_3">
      <g>
       <use xlink:href="#md29e604b6f" x="86.287752" y="122.4" style="stroke: #000000; stroke-width: 0.8"/>
      </g>
     </g>
     <g id="text_3">
      <!-- $\mathdefault{10^{1}}$ -->
      <g transform="translate(76.867752 141.775) scale(0.12 -0.12)">
       <use xlink:href="#ArialMT-31" transform="translate(0 0.99375)"/>
       <use xlink:href="#ArialMT-30" transform="translate(55.615234 0.99375)"/>
       <use xlink:href="#ArialMT-31" transform="translate(112.972813 70.6875) scale(0.7)"/>
      </g>
     </g>
    </g>
    <g id="xtick_4">
     <g id="line2d_4">
      <g>
       <use xlink:href="#md29e604b6f" x="103.464852" y="122.4" style="stroke: #000000; stroke-width: 0.8"/>
      </g>
     </g>
     <g id="text_4">
      <!-- $\mathdefault{10^{2}}$ -->
      <g transform="translate(94.044852 141.775) scale(0.12 -0.12)">
       <defs>
        <path id="ArialMT-32" d="M 3222 541 
L 3222 0 
L 194 0 
Q 188 203 259 391 
Q 375 700 629 1000 
Q 884 1300 1366 1694 
Q 2113 2306 2375 2664 
Q 2638 3022 2638 3341 
Q 2638 3675 2398 3904 
Q 2159 4134 1775 4134 
Q 1369 4134 1125 3890 
Q 881 3647 878 3216 
L 300 3275 
Q 359 3922 746 4261 
Q 1134 4600 1788 4600 
Q 2447 4600 2831 4234 
Q 3216 3869 3216 3328 
Q 3216 3053 3103 2787 
Q 2991 2522 2730 2228 
Q 2469 1934 1863 1422 
Q 1356 997 1212 845 
Q 1069 694 975 541 
L 3222 541 
z
" transform="scale(0.015625)"/>
       </defs>
       <use xlink:href="#ArialMT-31" transform="translate(0 0.99375)"/>
       <use xlink:href="#ArialMT-30" transform="translate(55.615234 0.99375)"/>
       <use xlink:href="#ArialMT-32" transform="translate(112.972813 70.6875) scale(0.7)"/>
      </g>
     </g>
    </g>
    <g id="xtick_5">
     <g id="line2d_5">
      <g>
       <use xlink:href="#md29e604b6f" x="120.641952" y="122.4" style="stroke: #000000; stroke-width: 0.8"/>
      </g>
     </g>
     <g id="text_5">
      <!-- $\mathdefault{10^{3}}$ -->
      <g transform="translate(111.221952 141.775) scale(0.12 -0.12)">
       <defs>
        <path id="ArialMT-33" d="M 269 1209 
L 831 1284 
Q 928 806 1161 595 
Q 1394 384 1728 384 
Q 2125 384 2398 659 
Q 2672 934 2672 1341 
Q 2672 1728 2419 1979 
Q 2166 2231 1775 2231 
Q 1616 2231 1378 2169 
L 1441 2663 
Q 1497 2656 1531 2656 
Q 1891 2656 2178 2843 
Q 2466 3031 2466 3422 
Q 2466 3731 2256 3934 
Q 2047 4138 1716 4138 
Q 1388 4138 1169 3931 
Q 950 3725 888 3313 
L 325 3413 
Q 428 3978 793 4289 
Q 1159 4600 1703 4600 
Q 2078 4600 2393 4439 
Q 2709 4278 2876 4000 
Q 3044 3722 3044 3409 
Q 3044 3113 2884 2869 
Q 2725 2625 2413 2481 
Q 2819 2388 3044 2092 
Q 3269 1797 3269 1353 
Q 3269 753 2831 336 
Q 2394 -81 1725 -81 
Q 1122 -81 723 278 
Q 325 638 269 1209 
z
" transform="scale(0.015625)"/>
       </defs>
       <use xlink:href="#ArialMT-31" transform="translate(0 0.99375)"/>
       <use xlink:href="#ArialMT-30" transform="translate(55.615234 0.99375)"/>
       <use xlink:href="#ArialMT-33" transform="translate(112.972813 70.6875) scale(0.7)"/>
      </g>
     </g>
    </g>
    <g id="text_6">
     <!-- CPM structured -->
     <g transform="translate(37.524375 156.749375) scale(0.12 -0.12)">
      <defs>
       <path id="ArialMT-43" d="M 3763 1606 
L 4369 1453 
Q 4178 706 3683 314 
Q 3188 -78 2472 -78 
Q 1731 -78 1267 223 
Q 803 525 561 1097 
Q 319 1669 319 2325 
Q 319 3041 592 3573 
Q 866 4106 1370 4382 
Q 1875 4659 2481 4659 
Q 3169 4659 3637 4309 
Q 4106 3959 4291 3325 
L 3694 3184 
Q 3534 3684 3231 3912 
Q 2928 4141 2469 4141 
Q 1941 4141 1586 3887 
Q 1231 3634 1087 3207 
Q 944 2781 944 2328 
Q 944 1744 1114 1308 
Q 1284 872 1643 656 
Q 2003 441 2422 441 
Q 2931 441 3284 734 
Q 3638 1028 3763 1606 
z
" transform="scale(0.015625)"/>
       <path id="ArialMT-50" d="M 494 0 
L 494 4581 
L 2222 4581 
Q 2678 4581 2919 4538 
Q 3256 4481 3484 4323 
Q 3713 4166 3852 3881 
Q 3991 3597 3991 3256 
Q 3991 2672 3619 2267 
Q 3247 1863 2275 1863 
L 1100 1863 
L 1100 0 
L 494 0 
z
M 1100 2403 
L 2284 2403 
Q 2872 2403 3119 2622 
Q 3366 2841 3366 3238 
Q 3366 3525 3220 3729 
Q 3075 3934 2838 4000 
Q 2684 4041 2272 4041 
L 1100 4041 
L 1100 2403 
z
" transform="scale(0.015625)"/>
       <path id="ArialMT-4d" d="M 475 0 
L 475 4581 
L 1388 4581 
L 2472 1338 
Q 2622 884 2691 659 
Q 2769 909 2934 1394 
L 4031 4581 
L 4847 4581 
L 4847 0 
L 4263 0 
L 4263 3834 
L 2931 0 
L 2384 0 
L 1059 3900 
L 1059 0 
L 475 0 
z
" transform="scale(0.015625)"/>
       <path id="ArialMT-20" transform="scale(0.015625)"/>
       <path id="ArialMT-73" d="M 197 991 
L 753 1078 
Q 800 744 1014 566 
Q 1228 388 1613 388 
Q 2000 388 2187 545 
Q 2375 703 2375 916 
Q 2375 1106 2209 1216 
Q 2094 1291 1634 1406 
Q 1016 1563 777 1677 
Q 538 1791 414 1992 
Q 291 2194 291 2438 
Q 291 2659 392 2848 
Q 494 3038 669 3163 
Q 800 3259 1026 3326 
Q 1253 3394 1513 3394 
Q 1903 3394 2198 3281 
Q 2494 3169 2634 2976 
Q 2775 2784 2828 2463 
L 2278 2388 
Q 2241 2644 2061 2787 
Q 1881 2931 1553 2931 
Q 1166 2931 1000 2803 
Q 834 2675 834 2503 
Q 834 2394 903 2306 
Q 972 2216 1119 2156 
Q 1203 2125 1616 2013 
Q 2213 1853 2448 1751 
Q 2684 1650 2818 1456 
Q 2953 1263 2953 975 
Q 2953 694 2789 445 
Q 2625 197 2315 61 
Q 2006 -75 1616 -75 
Q 969 -75 630 194 
Q 291 463 197 991 
z
" transform="scale(0.015625)"/>
       <path id="ArialMT-74" d="M 1650 503 
L 1731 6 
Q 1494 -44 1306 -44 
Q 1000 -44 831 53 
Q 663 150 594 308 
Q 525 466 525 972 
L 525 2881 
L 113 2881 
L 113 3319 
L 525 3319 
L 525 4141 
L 1084 4478 
L 1084 3319 
L 1650 3319 
L 1650 2881 
L 1084 2881 
L 1084 941 
Q 1084 700 1114 631 
Q 1144 563 1211 522 
Q 1278 481 1403 481 
Q 1497 481 1650 503 
z
" transform="scale(0.015625)"/>
       <path id="ArialMT-72" d="M 416 0 
L 416 3319 
L 922 3319 
L 922 2816 
Q 1116 3169 1280 3281 
Q 1444 3394 1641 3394 
Q 1925 3394 2219 3213 
L 2025 2691 
Q 1819 2813 1613 2813 
Q 1428 2813 1281 2702 
Q 1134 2591 1072 2394 
Q 978 2094 978 1738 
L 978 0 
L 416 0 
z
" transform="scale(0.015625)"/>
       <path id="ArialMT-75" d="M 2597 0 
L 2597 488 
Q 2209 -75 1544 -75 
Q 1250 -75 995 37 
Q 741 150 617 320 
Q 494 491 444 738 
Q 409 903 409 1263 
L 409 3319 
L 972 3319 
L 972 1478 
Q 972 1038 1006 884 
Q 1059 663 1231 536 
Q 1403 409 1656 409 
Q 1909 409 2131 539 
Q 2353 669 2445 892 
Q 2538 1116 2538 1541 
L 2538 3319 
L 3100 3319 
L 3100 0 
L 2597 0 
z
" transform="scale(0.015625)"/>
       <path id="ArialMT-63" d="M 2588 1216 
L 3141 1144 
Q 3050 572 2676 248 
Q 2303 -75 1759 -75 
Q 1078 -75 664 370 
Q 250 816 250 1647 
Q 250 2184 428 2587 
Q 606 2991 970 3192 
Q 1334 3394 1763 3394 
Q 2303 3394 2647 3120 
Q 2991 2847 3088 2344 
L 2541 2259 
Q 2463 2594 2264 2762 
Q 2066 2931 1784 2931 
Q 1359 2931 1093 2626 
Q 828 2322 828 1663 
Q 828 994 1084 691 
Q 1341 388 1753 388 
Q 2084 388 2306 591 
Q 2528 794 2588 1216 
z
" transform="scale(0.015625)"/>
       <path id="ArialMT-65" d="M 2694 1069 
L 3275 997 
Q 3138 488 2766 206 
Q 2394 -75 1816 -75 
Q 1088 -75 661 373 
Q 234 822 234 1631 
Q 234 2469 665 2931 
Q 1097 3394 1784 3394 
Q 2450 3394 2872 2941 
Q 3294 2488 3294 1666 
Q 3294 1616 3291 1516 
L 816 1516 
Q 847 969 1125 678 
Q 1403 388 1819 388 
Q 2128 388 2347 550 
Q 2566 713 2694 1069 
z
M 847 1978 
L 2700 1978 
Q 2663 2397 2488 2606 
Q 2219 2931 1791 2931 
Q 1403 2931 1139 2672 
Q 875 2413 847 1978 
z
" transform="scale(0.015625)"/>
       <path id="ArialMT-64" d="M 2575 0 
L 2575 419 
Q 2259 -75 1647 -75 
Q 1250 -75 917 144 
Q 584 363 401 755 
Q 219 1147 219 1656 
Q 219 2153 384 2558 
Q 550 2963 881 3178 
Q 1213 3394 1622 3394 
Q 1922 3394 2156 3267 
Q 2391 3141 2538 2938 
L 2538 4581 
L 3097 4581 
L 3097 0 
L 2575 0 
z
M 797 1656 
Q 797 1019 1065 703 
Q 1334 388 1700 388 
Q 2069 388 2326 689 
Q 2584 991 2584 1609 
Q 2584 2291 2321 2609 
Q 2059 2928 1675 2928 
Q 1300 2928 1048 2622 
Q 797 2316 797 1656 
z
" transform="scale(0.015625)"/>
      </defs>
      <use xlink:href="#ArialMT-43"/>
      <use xlink:href="#ArialMT-50" x="72.216797"/>
      <use xlink:href="#ArialMT-4d" x="138.916016"/>
      <use xlink:href="#ArialMT-20" x="222.216797"/>
      <use xlink:href="#ArialMT-73" x="250"/>
      <use xlink:href="#ArialMT-74" x="300"/>
      <use xlink:href="#ArialMT-72" x="327.783203"/>
      <use xlink:href="#ArialMT-75" x="361.083984"/>
      <use xlink:href="#ArialMT-63" x="416.699219"/>
      <use xlink:href="#ArialMT-74" x="466.699219"/>
      <use xlink:href="#ArialMT-75" x="494.482422"/>
      <use xlink:href="#ArialMT-72" x="550.097656"/>
      <use xlink:href="#ArialMT-65" x="583.398438"/>
      <use xlink:href="#ArialMT-64" x="639.013672"/>
     </g>
    </g>
   </g>
   <g id="matplotlib.axis_2">
    <g id="ytick_1">
     <g id="line2d_6">
      <defs>
       <path id="m738463eec0" d="M 0 0 
L -3.5 0 
" style="stroke: #000000; stroke-width: 0.8"/>
      </defs>
      <g>
       <use xlink:href="#m738463eec0" x="36" y="106.733015" style="stroke: #000000; stroke-width: 0.8"/>
      </g>
     </g>
     <g id="text_7">
      <!-- $\mathdefault{10^{-1}}$ -->
      <g transform="translate(5.24 112.920515) scale(0.12 -0.12)">
       <use xlink:href="#ArialMT-31" transform="translate(0 0.99375)"/>
       <use xlink:href="#ArialMT-30" transform="translate(55.615234 0.99375)"/>
       <use xlink:href="#ArialMT-2212" transform="translate(112.972813 70.6875) scale(0.7)"/>
       <use xlink:href="#ArialMT-31" transform="translate(153.851719 70.6875) scale(0.7)"/>
      </g>
     </g>
    </g>
    <g id="ytick_2">
     <g id="line2d_7">
      <g>
       <use xlink:href="#m738463eec0" x="36" y="89.937284" style="stroke: #000000; stroke-width: 0.8"/>
      </g>
     </g>
     <g id="text_8">
      <!-- $\mathdefault{10^{0}}$ -->
      <g transform="translate(10.16 96.124784) scale(0.12 -0.12)">
       <use xlink:href="#ArialMT-31" transform="translate(0 0.99375)"/>
       <use xlink:href="#ArialMT-30" transform="translate(55.615234 0.99375)"/>
       <use xlink:href="#ArialMT-30" transform="translate(112.972813 70.6875) scale(0.7)"/>
      </g>
     </g>
    </g>
    <g id="ytick_3">
     <g id="line2d_8">
      <g>
       <use xlink:href="#m738463eec0" x="36" y="73.141553" style="stroke: #000000; stroke-width: 0.8"/>
      </g>
     </g>
     <g id="text_9">
      <!-- $\mathdefault{10^{1}}$ -->
      <g transform="translate(10.16 79.329053) scale(0.12 -0.12)">
       <use xlink:href="#ArialMT-31" transform="translate(0 0.99375)"/>
       <use xlink:href="#ArialMT-30" transform="translate(55.615234 0.99375)"/>
       <use xlink:href="#ArialMT-31" transform="translate(112.972813 70.6875) scale(0.7)"/>
      </g>
     </g>
    </g>
    <g id="ytick_4">
     <g id="line2d_9">
      <g>
       <use xlink:href="#m738463eec0" x="36" y="56.345821" style="stroke: #000000; stroke-width: 0.8"/>
      </g>
     </g>
     <g id="text_10">
      <!-- $\mathdefault{10^{2}}$ -->
      <g transform="translate(10.16 62.533321) scale(0.12 -0.12)">
       <use xlink:href="#ArialMT-31" transform="translate(0 0.99375)"/>
       <use xlink:href="#ArialMT-30" transform="translate(55.615234 0.99375)"/>
       <use xlink:href="#ArialMT-32" transform="translate(112.972813 70.6875) scale(0.7)"/>
      </g>
     </g>
    </g>
    <g id="ytick_5">
     <g id="line2d_10">
      <g>
       <use xlink:href="#m738463eec0" x="36" y="39.55009" style="stroke: #000000; stroke-width: 0.8"/>
      </g>
     </g>
     <g id="text_11">
      <!-- $\mathdefault{10^{3}}$ -->
      <g transform="translate(10.16 45.73759) scale(0.12 -0.12)">
       <use xlink:href="#ArialMT-31" transform="translate(0 0.99375)"/>
       <use xlink:href="#ArialMT-30" transform="translate(55.615234 0.99375)"/>
       <use xlink:href="#ArialMT-33" transform="translate(112.972813 70.6875) scale(0.7)"/>
      </g>
     </g>
    </g>
    <g id="text_12">
     <!-- CPM random -->
     <g transform="translate(-1.145 114.541875) rotate(-90) scale(0.12 -0.12)">
      <defs>
       <path id="ArialMT-61" d="M 2588 409 
Q 2275 144 1986 34 
Q 1697 -75 1366 -75 
Q 819 -75 525 192 
Q 231 459 231 875 
Q 231 1119 342 1320 
Q 453 1522 633 1644 
Q 813 1766 1038 1828 
Q 1203 1872 1538 1913 
Q 2219 1994 2541 2106 
Q 2544 2222 2544 2253 
Q 2544 2597 2384 2738 
Q 2169 2928 1744 2928 
Q 1347 2928 1158 2789 
Q 969 2650 878 2297 
L 328 2372 
Q 403 2725 575 2942 
Q 747 3159 1072 3276 
Q 1397 3394 1825 3394 
Q 2250 3394 2515 3294 
Q 2781 3194 2906 3042 
Q 3031 2891 3081 2659 
Q 3109 2516 3109 2141 
L 3109 1391 
Q 3109 606 3145 398 
Q 3181 191 3288 0 
L 2700 0 
Q 2613 175 2588 409 
z
M 2541 1666 
Q 2234 1541 1622 1453 
Q 1275 1403 1131 1340 
Q 988 1278 909 1158 
Q 831 1038 831 891 
Q 831 666 1001 516 
Q 1172 366 1500 366 
Q 1825 366 2078 508 
Q 2331 650 2450 897 
Q 2541 1088 2541 1459 
L 2541 1666 
z
" transform="scale(0.015625)"/>
       <path id="ArialMT-6e" d="M 422 0 
L 422 3319 
L 928 3319 
L 928 2847 
Q 1294 3394 1984 3394 
Q 2284 3394 2536 3286 
Q 2788 3178 2913 3003 
Q 3038 2828 3088 2588 
Q 3119 2431 3119 2041 
L 3119 0 
L 2556 0 
L 2556 2019 
Q 2556 2363 2490 2533 
Q 2425 2703 2258 2804 
Q 2091 2906 1866 2906 
Q 1506 2906 1245 2678 
Q 984 2450 984 1813 
L 984 0 
L 422 0 
z
" transform="scale(0.015625)"/>
       <path id="ArialMT-6f" d="M 213 1659 
Q 213 2581 725 3025 
Q 1153 3394 1769 3394 
Q 2453 3394 2887 2945 
Q 3322 2497 3322 1706 
Q 3322 1066 3130 698 
Q 2938 331 2570 128 
Q 2203 -75 1769 -75 
Q 1072 -75 642 372 
Q 213 819 213 1659 
z
M 791 1659 
Q 791 1022 1069 705 
Q 1347 388 1769 388 
Q 2188 388 2466 706 
Q 2744 1025 2744 1678 
Q 2744 2294 2464 2611 
Q 2184 2928 1769 2928 
Q 1347 2928 1069 2612 
Q 791 2297 791 1659 
z
" transform="scale(0.015625)"/>
       <path id="ArialMT-6d" d="M 422 0 
L 422 3319 
L 925 3319 
L 925 2853 
Q 1081 3097 1340 3245 
Q 1600 3394 1931 3394 
Q 2300 3394 2536 3241 
Q 2772 3088 2869 2813 
Q 3263 3394 3894 3394 
Q 4388 3394 4653 3120 
Q 4919 2847 4919 2278 
L 4919 0 
L 4359 0 
L 4359 2091 
Q 4359 2428 4304 2576 
Q 4250 2725 4106 2815 
Q 3963 2906 3769 2906 
Q 3419 2906 3187 2673 
Q 2956 2441 2956 1928 
L 2956 0 
L 2394 0 
L 2394 2156 
Q 2394 2531 2256 2718 
Q 2119 2906 1806 2906 
Q 1569 2906 1367 2781 
Q 1166 2656 1075 2415 
Q 984 2175 984 1722 
L 984 0 
L 422 0 
z
" transform="scale(0.015625)"/>
      </defs>
      <use xlink:href="#ArialMT-43"/>
      <use xlink:href="#ArialMT-50" x="72.216797"/>
      <use xlink:href="#ArialMT-4d" x="138.916016"/>
      <use xlink:href="#ArialMT-20" x="222.216797"/>
      <use xlink:href="#ArialMT-72" x="250"/>
      <use xlink:href="#ArialMT-61" x="283.300781"/>
      <use xlink:href="#ArialMT-6e" x="338.916016"/>
      <use xlink:href="#ArialMT-64" x="394.53125"/>
      <use xlink:href="#ArialMT-6f" x="450.146484"/>
      <use xlink:href="#ArialMT-6d" x="505.761719"/>
     </g>
    </g>
   </g>
   <g id="patch_3">
    <path d="M 36 122.4 
L 36 36 
" style="fill: none; stroke: #000000; stroke-width: 0.8; stroke-linejoin: miter; stroke-linecap: square"/>
   </g>
   <g id="patch_4">
    <path d="M 36 122.4 
L 122.4 122.4 
" style="fill: none; stroke: #000000; stroke-width: 0.8; stroke-linejoin: miter; stroke-linecap: square"/>
   </g>
  </g>
 </g>
 <defs>
  <clipPath id="p20d561e8a7">
   <rect x="36" y="36" width="86.4" height="86.4"/>
  </clipPath>
 </defs>
</svg>
